<svg xmlns="http://www.w3.org/2000/svg" width="830" height="340" viewBox="0 0 830 340" role="img" aria-label="dekrezz — Agent infrastructure, MCP tooling and dev tools"><title>dekrezz — Agent infrastructure, MCP tooling and dev tools</title><path fill="#FAFAFA" d="M7.9 31.4Q5.9 31.4 4.4 30.3Q2.9 29.3 2.1 27.4Q1.3 25.6 1.3 23Q1.3 20.5 2.1 18.6Q2.9 16.7 4.4 15.7Q5.9 14.7 7.9 14.7Q9.6 14.7 10.9 15.4Q12.2 16.1 12.8 17.3V9.7H16V31H13L12.9 28.6Q12.3 29.9 10.9 30.6Q9.6 31.4 7.9 31.4ZM8.8 28.6Q10.7 28.6 11.8 27.1Q12.8 25.7 12.8 23Q12.8 20.4 11.8 18.9Q10.7 17.4 8.8 17.4Q6.8 17.4 5.7 18.9Q4.6 20.4 4.6 23Q4.6 25.6 5.7 27.1Q6.8 28.6 8.8 28.6ZM25.9 31.4Q23.5 31.4 21.8 30.3Q20.1 29.3 19.2 27.4Q18.3 25.5 18.3 23Q18.3 20.5 19.2 18.6Q20.1 16.8 21.8 15.7Q23.5 14.7 25.8 14.7Q27.9 14.7 29.6 15.7Q31.2 16.7 32.1 18.6Q33.1 20.5 33.1 23.1V23.9H21.6Q21.7 26.3 22.8 27.5Q24 28.6 25.9 28.6Q27.3 28.6 28.2 28Q29.1 27.3 29.5 26.2L32.8 26.4Q32.2 28.7 30.3 30Q28.5 31.4 25.9 31.4ZM21.6 21.6H29.7Q29.5 19.4 28.5 18.4Q27.4 17.4 25.8 17.4Q24.1 17.4 23 18.4Q21.9 19.5 21.6 21.6ZM35.4 31V9.7H38.6V22.9L45.7 15H49.7L43.5 21.8L50 31H46.3L41.4 23.7L38.6 26.7V31ZM51.5 31V15H54.4L54.5 18.1Q54.9 16.5 55.9 15.8Q56.8 15 58.3 15H59.8V17.9H58.3Q56.5 17.9 55.6 18.8Q54.7 19.7 54.7 21.6V31ZM67.8 31.4Q65.4 31.4 63.7 30.3Q62 29.3 61.1 27.4Q60.2 25.5 60.2 23Q60.2 20.5 61.1 18.6Q62 16.8 63.7 15.7Q65.4 14.7 67.7 14.7Q69.8 14.7 71.5 15.7Q73.1 16.7 74.1 18.6Q75 20.5 75 23.1V23.9H63.5Q63.6 26.3 64.8 27.5Q65.9 28.6 67.8 28.6Q69.2 28.6 70.1 28Q71 27.3 71.4 26.2L74.7 26.4Q74.1 28.7 72.3 30Q70.4 31.4 67.8 31.4ZM63.5 21.6H71.6Q71.5 19.4 70.4 18.4Q69.3 17.4 67.7 17.4Q66 17.4 64.9 18.4Q63.8 19.5 63.5 21.6ZM76.1 31V28.1L85.8 17.6H76.4V15H89.4V17.9L79.7 28.4H89.7V31ZM91.3 31V28.1L100.9 17.6H91.6V15H104.6V17.9L94.8 28.4H104.8V31Z"/><rect x="0" y="68" width="830" height="1" fill="#262626"/><path fill="#FAFAFA" d="M-0.9 156 12.9 117.7H19.2L33 156H27.9L24.1 145.1H8L4.2 156ZM9.6 140.6H22.5L16 121.7ZM45.8 164.7Q41.3 164.7 38 162.5Q34.8 160.2 33.9 156.4L38.6 156.1Q39.3 158.1 40.9 159.3Q42.5 160.4 45.8 160.4Q49.7 160.4 51.8 158.9Q53.9 157.3 53.9 154.2V149.5Q52.9 151.8 50.6 153.1Q48.3 154.5 45.5 154.5Q41.9 154.5 39.1 152.7Q36.2 150.9 34.6 147.8Q33 144.7 33 140.6Q33 136.5 34.6 133.4Q36.2 130.3 39 128.5Q41.7 126.7 45.3 126.7Q48.3 126.7 50.7 128.1Q53.1 129.5 54.1 131.9V127.4H58.4V154.1Q58.4 159.1 55.1 161.9Q51.8 164.7 45.8 164.7ZM45.7 150.2Q49.4 150.2 51.6 147.6Q53.8 145 53.9 140.6Q54 136.2 51.7 133.6Q49.5 131.1 45.7 131.1Q42 131.1 39.9 133.6Q37.8 136.2 37.8 140.6Q37.8 145 39.9 147.6Q42.1 150.2 45.7 150.2ZM75.3 156.6Q71.2 156.6 68.3 154.8Q65.3 153 63.7 149.6Q62.2 146.2 62.2 141.7Q62.2 137.2 63.7 133.8Q65.3 130.5 68.2 128.6Q71.1 126.7 75.1 126.7Q78.8 126.7 81.6 128.5Q84.5 130.2 86.1 133.6Q87.7 136.9 87.7 141.7V143.1H66.9Q67.2 147.7 69.4 150Q71.5 152.3 75.3 152.3Q78.1 152.3 79.9 151Q81.7 149.7 82.4 147.5L87.3 147.9Q86.1 151.7 83 154.2Q79.8 156.6 75.3 156.6ZM66.9 139.1H82.7Q82.4 134.9 80.3 133Q78.2 131.1 75.1 131.1Q71.8 131.1 69.6 133.1Q67.5 135.1 66.9 139.1ZM91.4 156V127.4H95.6L95.7 132.5Q96.8 129.5 99.2 128.1Q101.5 126.7 104.5 126.7Q107.8 126.7 109.9 128.2Q112 129.6 113.1 132.1Q114.2 134.6 114.2 137.6V156H109.6V138.9Q109.6 134.9 108.2 132.8Q106.8 130.7 103.5 130.7Q100.2 130.7 98.1 132.8Q96 134.9 96 138.9V156ZM128.7 156Q124.8 156 122.9 154.2Q121.1 152.4 121.1 148.7V131.4H116.9V127.4H121.1V120.7H125.6V127.4H133.2V131.4H125.6V148.5Q125.6 150.5 126.5 151.2Q127.3 152 129.1 152H133.2V156ZM148 156V127.4H152.5V156ZM147.9 122.9V117.6H152.7V122.9ZM159.1 156V127.4H163.2L163.3 132.5Q164.5 129.5 166.8 128.1Q169.2 126.7 172.2 126.7Q175.4 126.7 177.6 128.2Q179.7 129.6 180.8 132.1Q181.8 134.6 181.8 137.6V156H177.3V138.9Q177.3 134.9 175.8 132.8Q174.4 130.7 171.2 130.7Q167.9 130.7 165.8 132.8Q163.6 134.9 163.6 138.9V156ZM189 156V131.4H185.1V127.4H189V124.8Q189 121.6 190.8 119.6Q192.7 117.7 196.6 117.7H201.1V121.7H196.9Q195.2 121.7 194.4 122.6Q193.5 123.5 193.5 125.1V127.4H200.7V131.4H193.5V156ZM203.5 156V127.4H207.5L207.6 132.7Q209.1 127.4 214.4 127.4H217.2V131.7H214.5Q208 131.7 208 138.7V156ZM227.1 156.6Q222.6 156.6 220 154.6Q217.4 152.5 217.4 148.9Q217.4 145.2 219.6 143.1Q221.7 141 226.4 140.1L236.6 138.2Q236.6 131.1 229.8 131.1Q226.8 131.1 225.1 132.4Q223.3 133.7 222.7 136.2L217.9 135.8Q218.7 131.8 221.8 129.2Q224.9 126.7 229.8 126.7Q235.3 126.7 238.2 129.8Q241.1 132.9 241.1 138.4V150.2Q241.1 152 242.6 152H243.8V156Q243.1 156.1 242 156.1Q239.5 156.1 238.3 155.1Q237 154.1 236.7 151.8L236.6 151.6Q235.5 153.8 232.9 155.2Q230.3 156.6 227.1 156.6ZM227.5 152.7Q231.8 152.7 234.2 150.2Q236.6 147.8 236.6 144.2V142.2L227.3 143.9Q224.4 144.4 223.3 145.6Q222.2 146.7 222.2 148.4Q222.2 150.4 223.6 151.5Q225 152.7 227.5 152.7ZM256.8 156.6Q250.9 156.6 247.8 153.9Q244.7 151.2 244.4 147L249.2 146.7Q249.6 149.2 251.3 150.8Q253 152.3 256.8 152.3Q259.7 152.3 261.3 151.4Q262.9 150.4 262.9 148.3Q262.9 147.2 262.4 146.4Q261.8 145.7 260.3 145.1Q258.8 144.6 255.9 144Q251.9 143.3 249.6 142.1Q247.4 141 246.5 139.4Q245.5 137.7 245.5 135.5Q245.5 131.6 248.4 129.2Q251.2 126.7 256.4 126.7Q260.2 126.7 262.6 128.1Q265 129.4 266.2 131.5Q267.5 133.6 267.7 135.9L263 136.2Q262.8 134.2 261.3 132.6Q259.8 131.1 256.3 131.1Q253.2 131.1 251.7 132.2Q250.3 133.4 250.3 135.3Q250.3 137.4 251.6 138.4Q253 139.4 256.8 140Q261 140.7 263.4 141.8Q265.7 142.9 266.7 144.5Q267.6 146.1 267.6 148.3Q267.6 152.3 264.6 154.5Q261.5 156.6 256.8 156.6ZM280.9 156Q277 156 275.1 154.2Q273.2 152.4 273.2 148.7V131.4H269V127.4H273.2V120.7H277.8V127.4H285.4V131.4H277.8V148.5Q277.8 150.5 278.6 151.2Q279.5 152 281.3 152H285.4V156ZM289.4 156V127.4H293.4L293.5 132.7Q295 127.4 300.3 127.4H303.2V131.7H300.4Q293.9 131.7 293.9 138.7V156ZM315.7 156.6Q311.5 156.6 308.9 153.8Q306.3 150.9 306.3 145.8V127.4H310.9V144.6Q310.9 148.7 312.4 150.7Q313.8 152.7 316.9 152.7Q320.3 152.7 322.3 150.5Q324.2 148.3 324.2 144.4V127.4H328.8V156H324.4V151.4Q322.1 156.6 315.7 156.6ZM345.6 156.6Q341.6 156.6 338.7 154.8Q335.7 153 334.1 149.6Q332.5 146.2 332.5 141.7Q332.5 137.2 334.1 133.8Q335.7 130.5 338.7 128.6Q341.6 126.7 345.6 126.7Q350.6 126.7 353.8 129.3Q357 131.9 357.7 136.7L353 137Q352.5 134.1 350.5 132.6Q348.5 131.1 345.6 131.1Q341.7 131.1 339.4 133.9Q337.2 136.7 337.2 141.7Q337.2 146.7 339.4 149.5Q341.7 152.3 345.6 152.3Q348.5 152.3 350.5 150.7Q352.5 149.1 353 145.8L357.7 146.2Q357 150.9 353.8 153.8Q350.6 156.6 345.6 156.6ZM370.3 156Q366.4 156 364.6 154.2Q362.7 152.4 362.7 148.7V131.4H358.5V127.4H362.7V120.7H367.3V127.4H374.9V131.4H367.3V148.5Q367.3 150.5 368.1 151.2Q369 152 370.8 152H374.9V156ZM387.7 156.6Q383.4 156.6 380.8 153.8Q378.3 150.9 378.3 145.8V127.4H382.8V144.6Q382.8 148.7 384.3 150.7Q385.8 152.7 388.9 152.7Q392.3 152.7 394.2 150.5Q396.1 148.3 396.1 144.4V127.4H400.7V156H396.4V151.4Q394 156.6 387.7 156.6ZM406.9 156V127.4H410.9L411 132.7Q412.5 127.4 417.9 127.4H420.7V131.7H417.9Q411.4 131.7 411.4 138.7V156ZM433.9 156.6Q429.9 156.6 426.9 154.8Q424 153 422.4 149.6Q420.8 146.2 420.8 141.7Q420.8 137.2 422.4 133.8Q424 130.5 426.9 128.6Q429.8 126.7 433.7 126.7Q437.5 126.7 440.3 128.5Q443.2 130.2 444.8 133.6Q446.4 136.9 446.4 141.7V143.1H425.6Q425.8 147.7 428 150Q430.2 152.3 433.9 152.3Q436.8 152.3 438.6 151Q440.4 149.7 441.1 147.5L445.9 147.9Q444.8 151.7 441.6 154.2Q438.5 156.6 433.9 156.6ZM425.6 139.1H441.4Q441.1 134.9 439 133Q436.9 131.1 433.7 131.1Q430.4 131.1 428.3 133.1Q426.2 135.1 425.6 139.1ZM448.8 164.4 451.4 156H448.7V149.9H454.8V155.2L451.5 164.4Z"/><path fill="#FAFAFA" d="M3 216V177.7H9.4L21.7 210.9L33.9 177.7H40.4V216H35.7V186.3L24.8 216H18.6L7.6 186.3V216ZM61.8 216.9Q56.7 216.9 52.8 214.5Q48.9 212.1 46.8 207.6Q44.6 203.1 44.6 196.9Q44.6 190.7 46.8 186.2Q48.9 181.7 52.8 179.2Q56.7 176.8 61.8 176.8Q68.8 176.8 72.6 180.3Q76.5 183.8 77.7 189.9L72.7 190.2Q71.9 186.1 69.3 183.7Q66.6 181.3 61.8 181.3Q58.2 181.3 55.4 183.2Q52.6 185.1 51 188.5Q49.5 192 49.5 196.9Q49.5 201.7 51 205.2Q52.6 208.7 55.4 210.5Q58.2 212.3 61.8 212.3Q66.8 212.3 69.6 209.7Q72.4 207.1 73.1 202.6L78 202.9Q77.3 207.1 75.2 210.2Q73.2 213.4 69.8 215.1Q66.4 216.9 61.8 216.9ZM82.8 216V177.7H96.5Q103 177.7 106.5 180.7Q110.1 183.8 110.1 189.3Q110.1 194.8 106.5 198Q103 201.1 96.5 201.1H87.4V216ZM87.4 196.6H96.5Q105.2 196.6 105.2 189.3Q105.2 182.2 96.5 182.2H87.4ZM136.3 216Q132.5 216 130.6 214.2Q128.7 212.4 128.7 208.7V191.4H124.5V187.4H128.7V180.7H133.3V187.4H140.9V191.4H133.3V208.5Q133.3 210.5 134.1 211.2Q135 212 136.8 212H140.9V216ZM154.9 216.6Q151 216.6 148 214.8Q145 213 143.4 209.6Q141.8 206.2 141.8 201.7Q141.8 197.1 143.4 193.8Q145 190.4 148 188.6Q151 186.7 154.9 186.7Q158.9 186.7 161.8 188.6Q164.8 190.4 166.4 193.8Q168 197.1 168 201.7Q168 206.2 166.4 209.6Q164.8 213 161.8 214.8Q158.9 216.6 154.9 216.6ZM154.9 212.3Q158.9 212.3 161.1 209.5Q163.2 206.7 163.2 201.7Q163.2 196.7 161.1 193.9Q158.9 191.1 154.9 191.1Q151 191.1 148.8 193.9Q146.6 196.7 146.6 201.7Q146.6 206.7 148.8 209.5Q151 212.3 154.9 212.3ZM182.9 216.6Q179 216.6 176 214.8Q173 213 171.4 209.6Q169.8 206.2 169.8 201.7Q169.8 197.1 171.4 193.8Q173 190.4 176 188.6Q179 186.7 182.9 186.7Q186.8 186.7 189.8 188.6Q192.7 190.4 194.3 193.8Q196 197.1 196 201.7Q196 206.2 194.3 209.6Q192.7 213 189.8 214.8Q186.8 216.6 182.9 216.6ZM182.9 212.3Q186.8 212.3 189 209.5Q191.2 206.7 191.2 201.7Q191.2 196.7 189 193.9Q186.8 191.1 182.9 191.1Q179 191.1 176.7 193.9Q174.5 196.7 174.5 201.7Q174.5 206.7 176.7 209.5Q179 212.3 182.9 212.3ZM205.6 216Q203.1 216 201.5 214.7Q200 213.4 200 210.6V177.7H204.5V210.2Q204.5 212 206.3 212H208.8V216ZM211.5 216V187.4H216.1V216ZM211.4 182.9V177.6H216.2V182.9ZM222.6 216V187.4H226.7L226.9 192.5Q228 189.5 230.3 188.1Q232.7 186.7 235.7 186.7Q238.9 186.7 241.1 188.2Q243.2 189.6 244.3 192.1Q245.3 194.6 245.3 197.6V216H240.8V198.9Q240.8 194.9 239.4 192.8Q237.9 190.7 234.7 190.7Q231.4 190.7 229.3 192.8Q227.1 194.9 227.1 198.9V216ZM261.7 224.7Q257.1 224.7 253.9 222.5Q250.7 220.2 249.7 216.4L254.5 216.1Q255.1 218.1 256.8 219.3Q258.4 220.4 261.7 220.4Q265.6 220.4 267.7 218.9Q269.8 217.3 269.8 214.2V209.5Q268.8 211.8 266.5 213.1Q264.2 214.5 261.4 214.5Q257.8 214.5 255 212.7Q252.1 210.9 250.5 207.8Q248.9 204.7 248.9 200.6Q248.9 196.5 250.5 193.4Q252.1 190.3 254.9 188.5Q257.6 186.7 261.2 186.7Q264.2 186.7 266.6 188.1Q269 189.5 270 191.9V187.4H274.3V214.1Q274.3 219.1 271 221.9Q267.7 224.7 261.7 224.7ZM261.6 210.2Q265.3 210.2 267.5 207.6Q269.7 205 269.8 200.6Q269.9 196.2 267.6 193.6Q265.4 191.1 261.6 191.1Q257.8 191.1 255.8 193.6Q253.7 196.2 253.7 200.6Q253.7 205 255.8 207.6Q258 210.2 261.6 210.2ZM301.3 216.9Q295.8 216.9 292.6 214.2Q289.4 211.5 289.4 206.6Q289.4 204.1 290.1 202.2Q290.8 200.3 292.5 198.5Q294.1 196.7 297 194.7Q295.2 192.3 294.1 190.2Q293.1 188.2 293.1 185.7Q293.1 181.5 295.6 179.1Q298.1 176.8 302.5 176.8Q306.8 176.8 309.1 179Q311.5 181.2 311.5 185Q311.5 188.1 309.6 190.5Q307.8 193 303.5 195.9L312.2 207Q314.2 204.3 314.2 198.8L318.7 199.3Q318.7 202.5 317.7 205.5Q316.7 208.5 315.1 210.4L319.7 216H314.2L312.2 213.6Q310.7 215.1 307.9 216Q305.2 216.9 301.3 216.9ZM301 192.6Q304.1 190.7 305.3 189Q306.6 187.4 306.6 185.3Q306.6 183.4 305.5 182.4Q304.4 181.3 302.5 181.3Q300.3 181.3 299.2 182.5Q298 183.6 298 185.7Q298 187.3 298.6 188.8Q299.3 190.3 301 192.6ZM301.9 212.5Q304.6 212.5 306.4 211.9Q308.3 211.2 309.2 210.3L299.7 198.3Q296.8 200.3 295.5 202.2Q294.3 204.1 294.3 206.6Q294.3 209.3 296.1 210.9Q297.9 212.5 301.9 212.5ZM343.9 216.6Q340.1 216.6 337.4 214.8Q334.7 213 333.2 209.6Q331.8 206.3 331.8 201.7Q331.8 197.1 333.2 193.8Q334.7 190.4 337.4 188.6Q340.1 186.7 343.9 186.7Q346.7 186.7 349.1 187.9Q351.5 189.2 352.7 191.4V177.7H357.2V216H353.1L352.9 211.7Q351.8 214 349.3 215.3Q346.9 216.6 343.9 216.6ZM344.8 212.3Q348.6 212.3 350.6 209.5Q352.7 206.6 352.7 201.7Q352.7 196.7 350.6 193.9Q348.6 191.1 344.8 191.1Q341 191.1 338.8 193.9Q336.5 196.7 336.5 201.7Q336.5 206.6 338.8 209.5Q341 212.3 344.8 212.3ZM374.1 216.6Q370 216.6 367.1 214.8Q364.1 213 362.5 209.6Q360.9 206.2 360.9 201.7Q360.9 197.2 362.5 193.8Q364.1 190.5 367 188.6Q369.9 186.7 373.8 186.7Q377.6 186.7 380.4 188.5Q383.3 190.2 384.9 193.6Q386.5 196.9 386.5 201.7V203.1H365.7Q366 207.7 368.1 210Q370.3 212.3 374.1 212.3Q376.9 212.3 378.7 211Q380.5 209.7 381.2 207.5L386 207.9Q384.9 211.7 381.8 214.2Q378.6 216.6 374.1 216.6ZM365.7 199.1H381.5Q381.2 194.9 379.1 193Q377 191.1 373.8 191.1Q370.5 191.1 368.4 193.1Q366.3 195.1 365.7 199.1ZM396.7 216 386.3 187.4H391.2L399.5 211.4L407.9 187.4H412.8L402.4 216ZM437.5 216Q433.6 216 431.7 214.2Q429.8 212.4 429.8 208.7V191.4H425.6V187.4H429.8V180.7H434.4V187.4H442V191.4H434.4V208.5Q434.4 210.5 435.2 211.2Q436.1 212 437.9 212H442V216ZM456 216.6Q452.1 216.6 449.1 214.8Q446.1 213 444.5 209.6Q442.9 206.2 442.9 201.7Q442.9 197.1 444.5 193.8Q446.1 190.4 449.1 188.6Q452.1 186.7 456 186.7Q460 186.7 462.9 188.6Q465.9 190.4 467.5 193.8Q469.1 197.1 469.1 201.7Q469.1 206.2 467.5 209.6Q465.9 213 462.9 214.8Q460 216.6 456 216.6ZM456 212.3Q460 212.3 462.2 209.5Q464.3 206.7 464.3 201.7Q464.3 196.7 462.2 193.9Q460 191.1 456 191.1Q452.1 191.1 449.9 193.9Q447.7 196.7 447.7 201.7Q447.7 206.7 449.9 209.5Q452.1 212.3 456 212.3ZM484 216.6Q480.1 216.6 477.1 214.8Q474.1 213 472.5 209.6Q470.9 206.2 470.9 201.7Q470.9 197.1 472.5 193.8Q474.1 190.4 477.1 188.6Q480.1 186.7 484 186.7Q487.9 186.7 490.9 188.6Q493.8 190.4 495.4 193.8Q497.1 197.1 497.1 201.7Q497.1 206.2 495.4 209.6Q493.8 213 490.9 214.8Q487.9 216.6 484 216.6ZM484 212.3Q487.9 212.3 490.1 209.5Q492.3 206.7 492.3 201.7Q492.3 196.7 490.1 193.9Q487.9 191.1 484 191.1Q480.1 191.1 477.8 193.9Q475.6 196.7 475.6 201.7Q475.6 206.7 477.8 209.5Q480.1 212.3 484 212.3ZM506.7 216Q504.2 216 502.6 214.7Q501.1 213.4 501.1 210.6V177.7H505.6V210.2Q505.6 212 507.4 212H509.9V216ZM523.1 216.6Q517.3 216.6 514.2 213.9Q511.1 211.2 510.8 207L515.5 206.7Q516 209.2 517.7 210.8Q519.4 212.3 523.1 212.3Q526.1 212.3 527.7 211.4Q529.3 210.4 529.3 208.3Q529.3 207.2 528.7 206.4Q528.2 205.7 526.7 205.1Q525.2 204.6 522.3 204Q518.3 203.3 516 202.1Q513.8 201 512.8 199.4Q511.9 197.7 511.9 195.5Q511.9 191.6 514.8 189.2Q517.6 186.7 522.8 186.7Q526.6 186.7 529 188.1Q531.4 189.4 532.6 191.5Q533.8 193.6 534.1 195.9L529.4 196.2Q529.1 194.2 527.7 192.6Q526.2 191.1 522.7 191.1Q519.6 191.1 518.1 192.2Q516.7 193.4 516.7 195.3Q516.7 197.4 518 198.4Q519.4 199.4 523.1 200Q527.4 200.7 529.7 201.8Q532.1 202.9 533.1 204.5Q534 206.1 534 208.3Q534 212.3 531 214.5Q527.9 216.6 523.1 216.6ZM536.4 216V209.9H542.5V216Z"/><path fill="#8B8B8B" d="M1.7 284V271.2H3.2V284ZM14.8 284.2Q13.8 284.2 13.1 283.8Q12.3 283.3 11.9 282.6L11.8 284H10.4V271.2H12V275.8Q12.3 275.2 13.1 274.7Q13.8 274.2 14.8 274.2Q16.1 274.2 17 274.9Q17.9 275.5 18.4 276.6Q18.9 277.7 18.9 279.2Q18.9 280.8 18.4 281.9Q17.9 283 17 283.6Q16.1 284.2 14.8 284.2ZM14.7 282.8Q15.9 282.8 16.6 281.8Q17.3 280.9 17.3 279.2Q17.3 277.6 16.6 276.6Q15.9 275.7 14.8 275.7Q13.4 275.7 12.7 276.6Q12 277.6 12 279.2Q12 280.9 12.7 281.8Q13.4 282.8 14.7 282.8ZM23.9 284.2Q22.5 284.2 21.6 283.3Q20.8 282.3 20.8 280.6V274.5H22.3V280.2Q22.3 281.6 22.8 282.2Q23.3 282.9 24.3 282.9Q25.5 282.9 26.1 282.2Q26.7 281.4 26.7 280.1V274.5H28.3V284H26.8V282.5Q26 284.2 23.9 284.2ZM30.7 284V274.5H32.2V284ZM30.7 273V271.2H32.2V273ZM36.6 284Q35.8 284 35.2 283.6Q34.7 283.1 34.7 282.2V271.2H36.2V282.1Q36.2 282.7 36.8 282.7H37.7V284ZM42.6 284.2Q41.4 284.2 40.5 283.6Q39.6 283 39.1 281.9Q38.6 280.8 38.6 279.2Q38.6 277.7 39.1 276.6Q39.6 275.5 40.5 274.9Q41.4 274.2 42.6 274.2Q43.6 274.2 44.4 274.6Q45.2 275.1 45.6 275.8V271.2H47.1V284H45.7L45.6 282.6Q45.3 283.3 44.4 283.8Q43.6 284.2 42.6 284.2ZM42.9 282.8Q44.2 282.8 44.9 281.8Q45.6 280.9 45.6 279.2Q45.6 277.6 44.9 276.6Q44.2 275.7 42.9 275.7Q41.7 275.7 40.9 276.6Q40.2 277.6 40.2 279.2Q40.2 280.9 40.9 281.8Q41.7 282.8 42.9 282.8ZM57.6 284Q56.3 284 55.7 283.4Q55 282.8 55 281.6V275.8H53.6V274.5H55V272.2H56.6V274.5H59.1V275.8H56.6V281.5Q56.6 282.2 56.8 282.4Q57.1 282.7 57.7 282.7H59.1V284ZM64.4 284.2Q63.1 284.2 62.1 283.6Q61.1 283 60.6 281.9Q60 280.7 60 279.2Q60 277.7 60.6 276.6Q61.1 275.5 62.1 274.9Q63.1 274.2 64.4 274.2Q65.7 274.2 66.7 274.9Q67.7 275.5 68.2 276.6Q68.8 277.7 68.8 279.2Q68.8 280.7 68.2 281.9Q67.7 283 66.7 283.6Q65.7 284.2 64.4 284.2ZM64.4 282.8Q65.7 282.8 66.4 281.8Q67.2 280.9 67.2 279.2Q67.2 277.6 66.4 276.6Q65.7 275.7 64.4 275.7Q63.1 275.7 62.4 276.6Q61.6 277.6 61.6 279.2Q61.6 280.9 62.4 281.8Q63.1 282.8 64.4 282.8ZM74.4 284.2Q73 284.2 72.1 283.6Q71.1 283 70.5 281.9Q70 280.7 70 279.2Q70 277.7 70.5 276.6Q71.1 275.5 72.1 274.9Q73 274.2 74.4 274.2Q75.7 274.2 76.7 274.9Q77.6 275.5 78.2 276.6Q78.7 277.7 78.7 279.2Q78.7 280.7 78.2 281.9Q77.6 283 76.7 283.6Q75.7 284.2 74.4 284.2ZM74.4 282.8Q75.7 282.8 76.4 281.8Q77.1 280.9 77.1 279.2Q77.1 277.6 76.4 276.6Q75.7 275.7 74.4 275.7Q73 275.7 72.3 276.6Q71.6 277.6 71.6 279.2Q71.6 280.9 72.3 281.8Q73 282.8 74.4 282.8ZM82.5 284Q81.7 284 81.2 283.6Q80.7 283.1 80.7 282.2V271.2H82.2V282.1Q82.2 282.7 82.8 282.7H83.6V284ZM88.7 284.2Q86.7 284.2 85.7 283.3Q84.7 282.4 84.5 281L86.1 280.9Q86.3 281.8 86.8 282.3Q87.4 282.8 88.7 282.8Q89.6 282.8 90.2 282.5Q90.7 282.1 90.7 281.4Q90.7 281.1 90.5 280.8Q90.4 280.6 89.9 280.4Q89.4 280.2 88.4 280Q87 279.8 86.3 279.4Q85.5 279 85.2 278.5Q84.9 277.9 84.9 277.2Q84.9 275.9 85.9 275.1Q86.8 274.2 88.5 274.2Q89.8 274.2 90.6 274.7Q91.4 275.1 91.8 275.8Q92.2 276.5 92.3 277.3L90.7 277.4Q90.7 276.7 90.2 276.2Q89.7 275.7 88.5 275.7Q87.5 275.7 87 276.1Q86.5 276.5 86.5 277.1Q86.5 277.8 87 278.1Q87.4 278.5 88.7 278.7Q90.1 278.9 90.9 279.3Q91.7 279.6 92 280.2Q92.3 280.7 92.3 281.4Q92.3 282.8 91.3 283.5Q90.3 284.2 88.7 284.2ZM99.6 284V275.8H98.3V274.5H99.6V273.6Q99.6 272.5 100.2 271.9Q100.9 271.2 102.1 271.2H103.7V272.6H102.3Q101.7 272.6 101.4 272.9Q101.1 273.2 101.1 273.7V274.5H103.5V275.8H101.1V284ZM108.6 284.2Q107.2 284.2 106.3 283.6Q105.3 283 104.7 281.9Q104.2 280.7 104.2 279.2Q104.2 277.7 104.7 276.6Q105.3 275.5 106.3 274.9Q107.2 274.2 108.6 274.2Q109.9 274.2 110.9 274.9Q111.8 275.5 112.4 276.6Q112.9 277.7 112.9 279.2Q112.9 280.7 112.4 281.9Q111.8 283 110.9 283.6Q109.9 284.2 108.6 284.2ZM108.6 282.8Q109.9 282.8 110.6 281.8Q111.3 280.9 111.3 279.2Q111.3 277.6 110.6 276.6Q109.9 275.7 108.6 275.7Q107.2 275.7 106.5 276.6Q105.8 277.6 105.8 279.2Q105.8 280.9 106.5 281.8Q107.2 282.8 108.6 282.8ZM114.8 284V274.5H116.1L116.2 276.2Q116.7 274.5 118.4 274.5H119.4V275.9H118.5Q116.3 275.9 116.3 278.2V284ZM129.5 284.2Q128.1 284.2 127.2 283.6Q126.2 283 125.6 281.9Q125.1 280.7 125.1 279.2Q125.1 277.7 125.6 276.6Q126.2 275.5 127.2 274.9Q128.1 274.2 129.5 274.2Q131.1 274.2 132.2 275.1Q133.3 276 133.5 277.6L131.9 277.7Q131.8 276.7 131.1 276.2Q130.4 275.7 129.5 275.7Q128.2 275.7 127.4 276.6Q126.7 277.6 126.7 279.2Q126.7 280.9 127.4 281.8Q128.2 282.8 129.5 282.8Q130.4 282.8 131.1 282.2Q131.8 281.7 131.9 280.6L133.5 280.7Q133.3 282.3 132.2 283.3Q131.1 284.2 129.5 284.2ZM138.9 284.2Q137.6 284.2 136.6 283.6Q135.6 283 135.1 281.9Q134.6 280.7 134.6 279.2Q134.6 277.7 135.1 276.6Q135.6 275.5 136.6 274.9Q137.6 274.2 138.9 274.2Q140.3 274.2 141.2 274.9Q142.2 275.5 142.8 276.6Q143.3 277.7 143.3 279.2Q143.3 280.7 142.8 281.9Q142.2 283 141.2 283.6Q140.3 284.2 138.9 284.2ZM138.9 282.8Q140.3 282.8 141 281.8Q141.7 280.9 141.7 279.2Q141.7 277.6 141 276.6Q140.3 275.7 138.9 275.7Q137.6 275.7 136.9 276.6Q136.2 277.6 136.2 279.2Q136.2 280.9 136.9 281.8Q137.6 282.8 138.9 282.8ZM148.6 284.2Q147.3 284.2 146.4 283.6Q145.5 283 145 281.9Q144.5 280.8 144.5 279.2Q144.5 277.7 145 276.6Q145.5 275.5 146.4 274.9Q147.3 274.2 148.6 274.2Q149.5 274.2 150.3 274.6Q151.1 275.1 151.5 275.8V271.2H153V284H151.6L151.6 282.6Q151.2 283.3 150.4 283.8Q149.6 284.2 148.6 284.2ZM148.9 282.8Q150.1 282.8 150.8 281.8Q151.5 280.9 151.5 279.2Q151.5 277.6 150.8 276.6Q150.1 275.7 148.9 275.7Q147.6 275.7 146.9 276.6Q146.1 277.6 146.1 279.2Q146.1 280.9 146.9 281.8Q147.6 282.8 148.9 282.8ZM155.3 284V274.5H156.9V284ZM155.3 273V271.2H156.9V273ZM159.7 284V274.5H161L161.1 276.2Q161.5 275.2 162.2 274.7Q163 274.2 164 274.2Q165.1 274.2 165.8 274.7Q166.5 275.2 166.9 276Q167.2 276.9 167.2 277.9V284H165.7V278.3Q165.7 277 165.2 276.3Q164.8 275.6 163.7 275.6Q162.6 275.6 161.9 276.3Q161.2 277 161.2 278.3V284ZM173.3 286.9Q171.8 286.9 170.7 286.2Q169.6 285.4 169.3 284.1L170.9 284Q171.1 284.7 171.7 285.1Q172.2 285.5 173.3 285.5Q174.6 285.5 175.3 285Q176 284.4 176 283.4V281.8Q175.7 282.6 174.9 283Q174.2 283.5 173.2 283.5Q172 283.5 171.1 282.9Q170.1 282.3 169.6 281.3Q169.1 280.2 169.1 278.9Q169.1 277.5 169.6 276.5Q170.1 275.4 171 274.8Q172 274.2 173.2 274.2Q174.2 274.2 175 274.7Q175.8 275.2 176.1 276V274.5H177.5V283.4Q177.5 285 176.4 286Q175.3 286.9 173.3 286.9ZM173.3 282.1Q174.5 282.1 175.3 281.2Q176 280.3 176 278.9Q176.1 277.4 175.3 276.5Q174.5 275.7 173.3 275.7Q172 275.7 171.4 276.5Q170.7 277.4 170.7 278.9Q170.7 280.3 171.4 281.2Q172.1 282.1 173.3 282.1ZM187.1 284.2Q185.7 284.2 184.8 283.5Q183.9 282.8 183.9 281.6Q183.9 280.4 184.6 279.7Q185.3 279 186.9 278.7L190.3 278.1Q190.3 275.7 188 275.7Q187 275.7 186.5 276.1Q185.9 276.6 185.7 277.4L184.1 277.3Q184.3 275.9 185.4 275.1Q186.4 274.2 188 274.2Q189.9 274.2 190.8 275.3Q191.8 276.3 191.8 278.1V282.1Q191.8 282.7 192.3 282.7H192.7V284Q192.5 284 192.1 284Q191.3 284 190.9 283.7Q190.4 283.4 190.3 282.6L190.3 282.5Q190 283.3 189.1 283.7Q188.2 284.2 187.1 284.2ZM187.3 282.9Q188.7 282.9 189.5 282.1Q190.3 281.3 190.3 280.1V279.4L187.2 280Q186.2 280.1 185.9 280.5Q185.5 280.9 185.5 281.5Q185.5 282.1 186 282.5Q186.4 282.9 187.3 282.9ZM197.8 286.9Q196.3 286.9 195.2 286.2Q194.1 285.4 193.8 284.1L195.4 284Q195.6 284.7 196.2 285.1Q196.7 285.5 197.8 285.5Q199.1 285.5 199.8 285Q200.5 284.4 200.5 283.4V281.8Q200.1 282.6 199.4 283Q198.6 283.5 197.7 283.5Q196.5 283.5 195.5 282.9Q194.6 282.3 194.1 281.3Q193.5 280.2 193.5 278.9Q193.5 277.5 194.1 276.5Q194.6 275.4 195.5 274.8Q196.4 274.2 197.6 274.2Q198.6 274.2 199.4 274.7Q200.2 275.2 200.6 276V274.5H202V283.4Q202 285 200.9 286Q199.8 286.9 197.8 286.9ZM197.8 282.1Q199 282.1 199.7 281.2Q200.5 280.3 200.5 278.9Q200.5 277.4 199.8 276.5Q199 275.7 197.8 275.7Q196.5 275.7 195.8 276.5Q195.1 277.4 195.1 278.9Q195.1 280.3 195.8 281.2Q196.5 282.1 197.8 282.1ZM208.2 284.2Q206.9 284.2 205.9 283.6Q204.9 283 204.4 281.9Q203.9 280.7 203.9 279.2Q203.9 277.7 204.4 276.6Q204.9 275.5 205.9 274.9Q206.9 274.2 208.2 274.2Q209.4 274.2 210.4 274.8Q211.3 275.4 211.9 276.5Q212.4 277.6 212.4 279.2V279.7H205.5Q205.5 281.2 206.3 282Q207 282.8 208.2 282.8Q209.2 282.8 209.8 282.3Q210.4 281.9 210.6 281.2L212.2 281.3Q211.9 282.6 210.8 283.4Q209.8 284.2 208.2 284.2ZM205.5 278.4H210.7Q210.6 277 209.9 276.3Q209.2 275.7 208.2 275.7Q207.1 275.7 206.4 276.4Q205.6 277 205.5 278.4ZM214.3 284V274.5H215.6L215.7 276.2Q216.1 275.2 216.8 274.7Q217.6 274.2 218.6 274.2Q219.7 274.2 220.4 274.7Q221.1 275.2 221.5 276Q221.8 276.9 221.8 277.9V284H220.3V278.3Q220.3 277 219.8 276.3Q219.4 275.6 218.3 275.6Q217.2 275.6 216.5 276.3Q215.8 277 215.8 278.3V284ZM227.3 284Q226 284 225.4 283.4Q224.8 282.8 224.8 281.6V275.8H223.4V274.5H224.8V272.2H226.3V274.5H228.8V275.8H226.3V281.5Q226.3 282.2 226.6 282.4Q226.9 282.7 227.4 282.7H228.8V284ZM233.9 284.2Q231.9 284.2 230.9 283.3Q229.9 282.4 229.8 281L231.3 280.9Q231.5 281.8 232 282.3Q232.6 282.8 233.9 282.8Q234.8 282.8 235.4 282.5Q235.9 282.1 235.9 281.4Q235.9 281.1 235.7 280.8Q235.6 280.6 235.1 280.4Q234.6 280.2 233.6 280Q232.3 279.8 231.5 279.4Q230.7 279 230.4 278.5Q230.1 277.9 230.1 277.2Q230.1 275.9 231.1 275.1Q232 274.2 233.7 274.2Q235 274.2 235.8 274.7Q236.6 275.1 237 275.8Q237.4 276.5 237.5 277.3L235.9 277.4Q235.9 276.7 235.4 276.2Q234.9 275.7 233.7 275.7Q232.7 275.7 232.2 276.1Q231.7 276.5 231.7 277.1Q231.7 277.8 232.2 278.1Q232.6 278.5 233.9 278.7Q235.3 278.9 236.1 279.3Q236.9 279.6 237.2 280.2Q237.5 280.7 237.5 281.4Q237.5 282.8 236.5 283.5Q235.5 284.2 233.9 284.2ZM243.3 279.4V278H258V279.4ZM268.1 284.2Q266.8 284.2 265.8 283.6Q264.8 283 264.3 281.9Q263.7 280.7 263.7 279.2Q263.7 277.7 264.3 276.6Q264.8 275.5 265.8 274.9Q266.8 274.2 268.1 274.2Q269.4 274.2 270.4 274.9Q271.4 275.5 271.9 276.6Q272.4 277.7 272.4 279.2Q272.4 280.7 271.9 281.9Q271.4 283 270.4 283.6Q269.4 284.2 268.1 284.2ZM268.1 282.8Q269.4 282.8 270.1 281.8Q270.9 280.9 270.9 279.2Q270.9 277.6 270.1 276.6Q269.4 275.7 268.1 275.7Q266.8 275.7 266 276.6Q265.3 277.6 265.3 279.2Q265.3 280.9 266 281.8Q266.8 282.8 268.1 282.8ZM274.3 284V274.5H275.7L275.7 276.2Q276.2 274.5 278 274.5H278.9V275.9H278Q275.8 275.9 275.8 278.2V284ZM284 284.2Q282.6 284.2 281.7 283.6Q280.7 283 280.1 281.9Q279.6 280.7 279.6 279.2Q279.6 277.7 280.1 276.6Q280.7 275.5 281.7 274.9Q282.6 274.2 284 274.2Q285.6 274.2 286.7 275.1Q287.8 276 288 277.6L286.4 277.7Q286.3 276.7 285.6 276.2Q284.9 275.7 284 275.7Q282.7 275.7 281.9 276.6Q281.2 277.6 281.2 279.2Q281.2 280.9 281.9 281.8Q282.7 282.8 284 282.8Q284.9 282.8 285.6 282.2Q286.3 281.7 286.4 280.6L288 280.7Q287.8 282.3 286.7 283.3Q285.6 284.2 284 284.2ZM289.7 284V271.2H291.2V276Q291.6 275.1 292.4 274.7Q293.1 274.2 294.1 274.2Q295.6 274.2 296.5 275.3Q297.3 276.3 297.3 277.9V284H295.8V278.3Q295.8 275.6 293.8 275.6Q292.6 275.6 291.9 276.3Q291.2 277 291.2 278.3V284ZM303.5 284.2Q302.1 284.2 301.2 283.6Q300.2 283 299.7 281.9Q299.1 280.7 299.1 279.2Q299.1 277.7 299.7 276.6Q300.2 275.5 301.1 274.9Q302.1 274.2 303.4 274.2Q304.7 274.2 305.6 274.8Q306.6 275.4 307.1 276.5Q307.6 277.6 307.6 279.2V279.7H300.7Q300.8 281.2 301.5 282Q302.3 282.8 303.5 282.8Q304.4 282.8 305 282.3Q305.6 281.9 305.9 281.2L307.5 281.3Q307.1 282.6 306.1 283.4Q305 284.2 303.5 284.2ZM300.7 278.4H306Q305.9 277 305.2 276.3Q304.5 275.7 303.4 275.7Q302.3 275.7 301.6 276.4Q300.9 277 300.7 278.4ZM313 284.2Q311 284.2 310 283.3Q309 282.4 308.9 281L310.4 280.9Q310.6 281.8 311.2 282.3Q311.7 282.8 313 282.8Q314 282.8 314.5 282.5Q315 282.1 315 281.4Q315 281.1 314.8 280.8Q314.7 280.6 314.2 280.4Q313.7 280.2 312.7 280Q311.4 279.8 310.6 279.4Q309.9 279 309.5 278.5Q309.2 277.9 309.2 277.2Q309.2 275.9 310.2 275.1Q311.1 274.2 312.9 274.2Q314.1 274.2 314.9 274.7Q315.7 275.1 316.1 275.8Q316.5 276.5 316.6 277.3L315.1 277.4Q315 276.7 314.5 276.2Q314 275.7 312.8 275.7Q311.8 275.7 311.3 276.1Q310.8 276.5 310.8 277.1Q310.8 277.8 311.3 278.1Q311.7 278.5 313 278.7Q314.4 278.9 315.2 279.3Q316 279.6 316.3 280.2Q316.6 280.7 316.6 281.4Q316.6 282.8 315.6 283.5Q314.6 284.2 313 284.2ZM321.6 284Q320.3 284 319.7 283.4Q319.1 282.8 319.1 281.6V275.8H317.7V274.5H319.1V272.2H320.6V274.5H323.2V275.8H320.6V281.5Q320.6 282.2 320.9 282.4Q321.2 282.7 321.8 282.7H323.2V284ZM325.1 284V274.5H326.4L326.5 276.2Q327 274.5 328.8 274.5H329.7V275.9H328.8Q326.6 275.9 326.6 278.2V284ZM333.6 284.2Q332.1 284.2 331.3 283.5Q330.4 282.8 330.4 281.6Q330.4 280.4 331.1 279.7Q331.8 279 333.4 278.7L336.8 278.1Q336.8 275.7 334.5 275.7Q333.5 275.7 332.9 276.1Q332.4 276.6 332.2 277.4L330.6 277.3Q330.8 275.9 331.9 275.1Q332.9 274.2 334.5 274.2Q336.3 274.2 337.3 275.3Q338.3 276.3 338.3 278.1V282.1Q338.3 282.7 338.8 282.7H339.2V284Q339 284 338.6 284Q337.8 284 337.3 283.7Q336.9 283.4 336.8 282.6L336.8 282.5Q336.4 283.3 335.6 283.7Q334.7 284.2 333.6 284.2ZM333.8 282.9Q335.2 282.9 336 282.1Q336.8 281.3 336.8 280.1V279.4L333.7 280Q332.7 280.1 332.3 280.5Q332 280.9 332 281.5Q332 282.1 332.5 282.5Q332.9 282.9 333.8 282.9ZM343.4 284Q342.1 284 341.5 283.4Q340.8 282.8 340.8 281.6V275.8H339.4V274.5H340.8V272.2H342.3V274.5H344.9V275.8H342.3V281.5Q342.3 282.2 342.6 282.4Q342.9 282.7 343.5 282.7H344.9V284ZM346.5 284V274.5H348V284ZM346.4 273V271.2H348V273ZM354.2 284.2Q352.9 284.2 351.9 283.6Q350.9 283 350.4 281.9Q349.8 280.7 349.8 279.2Q349.8 277.7 350.4 276.6Q350.9 275.5 351.9 274.9Q352.9 274.2 354.2 274.2Q355.5 274.2 356.5 274.9Q357.5 275.5 358 276.6Q358.6 277.7 358.6 279.2Q358.6 280.7 358 281.9Q357.5 283 356.5 283.6Q355.5 284.2 354.2 284.2ZM354.2 282.8Q355.5 282.8 356.3 281.8Q357 280.9 357 279.2Q357 277.6 356.3 276.6Q355.5 275.7 354.2 275.7Q352.9 275.7 352.2 276.6Q351.4 277.6 351.4 279.2Q351.4 280.9 352.2 281.8Q352.9 282.8 354.2 282.8ZM360.5 284V274.5H361.8L361.9 276.2Q362.3 275.2 363 274.7Q363.8 274.2 364.8 274.2Q365.9 274.2 366.6 274.7Q367.3 275.2 367.7 276Q368 276.9 368 277.9V284H366.5V278.3Q366.5 277 366 276.3Q365.6 275.6 364.5 275.6Q363.4 275.6 362.7 276.3Q362 277 362 278.3V284ZM370.1 286.8 371 284H370.1V282H372.1V283.7L371 286.8ZM378.7 284V271.2H380.9L384.9 282.3L389 271.2H391.2V284H389.6V274.1L386 284H383.9L380.3 274.1V284ZM399 284.3Q397.2 284.3 395.9 283.5Q394.7 282.7 393.9 281.2Q393.2 279.7 393.2 277.6Q393.2 275.6 393.9 274.1Q394.7 272.6 395.9 271.7Q397.2 270.9 399 270.9Q401.3 270.9 402.6 272.1Q403.8 273.3 404.2 275.3L402.6 275.4Q402.3 274 401.4 273.2Q400.6 272.4 399 272.4Q397.7 272.4 396.8 273.1Q395.9 273.7 395.4 274.8Q394.8 276 394.8 277.6Q394.8 279.2 395.4 280.4Q395.9 281.6 396.8 282.2Q397.7 282.8 399 282.8Q400.6 282.8 401.5 281.9Q402.5 281 402.7 279.5L404.3 279.6Q404.1 281 403.4 282.1Q402.7 283.1 401.6 283.7Q400.5 284.3 399 284.3ZM406.6 284V271.2H411.2Q413.3 271.2 414.5 272.2Q415.7 273.3 415.7 275.1Q415.7 276.9 414.5 278Q413.3 279 411.2 279H408.1V284ZM408.1 277.5H411.2Q414.1 277.5 414.1 275.1Q414.1 272.7 411.2 272.7H408.1ZM425.7 284.2Q423.7 284.2 422.7 283.3Q421.6 282.4 421.5 281L423.1 280.9Q423.3 281.8 423.8 282.3Q424.4 282.8 425.7 282.8Q426.6 282.8 427.2 282.5Q427.7 282.1 427.7 281.4Q427.7 281.1 427.5 280.8Q427.4 280.6 426.9 280.4Q426.3 280.2 425.4 280Q424 279.8 423.3 279.4Q422.5 279 422.2 278.5Q421.9 277.9 421.9 277.2Q421.9 275.9 422.9 275.1Q423.8 274.2 425.5 274.2Q426.8 274.2 427.6 274.7Q428.4 275.1 428.8 275.8Q429.2 276.5 429.3 277.3L427.7 277.4Q427.7 276.7 427.2 276.2Q426.7 275.7 425.5 275.7Q424.5 275.7 424 276.1Q423.5 276.5 423.5 277.1Q423.5 277.8 424 278.1Q424.4 278.5 425.7 278.7Q427.1 278.9 427.9 279.3Q428.7 279.6 429 280.2Q429.3 280.7 429.3 281.4Q429.3 282.8 428.3 283.5Q427.2 284.2 425.7 284.2ZM434.9 284.2Q433.6 284.2 432.6 283.6Q431.6 283 431.1 281.9Q430.5 280.7 430.5 279.2Q430.5 277.7 431.1 276.6Q431.6 275.5 432.6 274.9Q433.5 274.2 434.8 274.2Q436.1 274.2 437 274.8Q438 275.4 438.5 276.5Q439.1 277.6 439.1 279.2V279.7H432.1Q432.2 281.2 432.9 282Q433.7 282.8 434.9 282.8Q435.9 282.8 436.5 282.3Q437.1 281.9 437.3 281.2L438.9 281.3Q438.5 282.6 437.5 283.4Q436.4 284.2 434.9 284.2ZM432.1 278.4H437.4Q437.3 277 436.6 276.3Q435.9 275.7 434.8 275.7Q433.7 275.7 433 276.4Q432.3 277 432.1 278.4ZM440.9 284V274.5H442.3L442.3 276.2Q442.8 274.5 444.6 274.5H445.5V275.9H444.6Q442.4 275.9 442.4 278.2V284ZM449.6 284 446.1 274.5H447.7L450.5 282.5L453.3 274.5H454.9L451.5 284ZM459.8 284.2Q458.5 284.2 457.5 283.6Q456.5 283 456 281.9Q455.5 280.7 455.5 279.2Q455.5 277.7 456 276.6Q456.5 275.5 457.5 274.9Q458.5 274.2 459.8 274.2Q461 274.2 462 274.8Q462.9 275.4 463.5 276.5Q464 277.6 464 279.2V279.7H457.1Q457.1 281.2 457.9 282Q458.6 282.8 459.8 282.8Q460.8 282.8 461.4 282.3Q462 281.9 462.2 281.2L463.8 281.3Q463.5 282.6 462.4 283.4Q461.4 284.2 459.8 284.2ZM457.1 278.4H462.3Q462.2 277 461.5 276.3Q460.8 275.7 459.8 275.7Q458.7 275.7 458 276.4Q457.3 277 457.1 278.4ZM465.9 284V274.5H467.2L467.2 276.2Q467.7 274.5 469.5 274.5H470.4V275.9H469.5Q467.4 275.9 467.4 278.2V284ZM475.3 284.2Q473.3 284.2 472.3 283.3Q471.2 282.4 471.1 281L472.7 280.9Q472.9 281.8 473.4 282.3Q474 282.8 475.3 282.8Q476.2 282.8 476.8 282.5Q477.3 282.1 477.3 281.4Q477.3 281.1 477.1 280.8Q476.9 280.6 476.4 280.4Q475.9 280.2 475 280Q473.6 279.8 472.9 279.4Q472.1 279 471.8 278.5Q471.5 277.9 471.5 277.2Q471.5 275.9 472.5 275.1Q473.4 274.2 475.1 274.2Q476.4 274.2 477.2 274.7Q478 275.1 478.4 275.8Q478.8 276.5 478.9 277.3L477.3 277.4Q477.3 276.7 476.8 276.2Q476.3 275.7 475.1 275.7Q474.1 275.7 473.6 276.1Q473.1 276.5 473.1 277.1Q473.1 277.8 473.5 278.1Q474 278.5 475.3 278.7Q476.7 278.9 477.5 279.3Q478.2 279.6 478.6 280.2Q478.9 280.7 478.9 281.4Q478.9 282.8 477.9 283.5Q476.8 284.2 475.3 284.2ZM480.4 286.8 481.2 284H480.3V282H482.3V283.7L481.3 286.8ZM491.1 284 487.7 274.5H489.3L492.1 282.5L494.9 274.5H496.5L493.1 284ZM501.4 284.2Q500.1 284.2 499.1 283.6Q498.2 283 497.6 281.9Q497.1 280.7 497.1 279.2Q497.1 277.7 497.6 276.6Q498.2 275.5 499.1 274.9Q500.1 274.2 501.4 274.2Q502.8 274.2 503.7 274.9Q504.7 275.5 505.3 276.6Q505.8 277.7 505.8 279.2Q505.8 280.7 505.3 281.9Q504.7 283 503.7 283.6Q502.8 284.2 501.4 284.2ZM501.4 282.8Q502.8 282.8 503.5 281.8Q504.2 280.9 504.2 279.2Q504.2 277.6 503.5 276.6Q502.8 275.7 501.4 275.7Q500.1 275.7 499.4 276.6Q498.7 277.6 498.7 279.2Q498.7 280.9 499.4 281.8Q500.1 282.8 501.4 282.8ZM507.7 284V274.5H509.2V284ZM507.6 273V271.2H509.2V273ZM515.4 284.2Q514.1 284.2 513.1 283.6Q512.1 283 511.6 281.9Q511.1 280.7 511.1 279.2Q511.1 277.7 511.6 276.6Q512.1 275.5 513.1 274.9Q514.1 274.2 515.4 274.2Q517.1 274.2 518.2 275.1Q519.2 276 519.5 277.6L517.9 277.7Q517.7 276.7 517.1 276.2Q516.4 275.7 515.4 275.7Q514.1 275.7 513.4 276.6Q512.6 277.6 512.6 279.2Q512.6 280.9 513.4 281.8Q514.1 282.8 515.4 282.8Q516.4 282.8 517.1 282.2Q517.7 281.7 517.9 280.6L519.5 280.7Q519.2 282.3 518.2 283.3Q517.1 284.2 515.4 284.2ZM524.9 284.2Q523.5 284.2 522.6 283.6Q521.6 283 521.1 281.9Q520.5 280.7 520.5 279.2Q520.5 277.7 521.1 276.6Q521.6 275.5 522.5 274.9Q523.5 274.2 524.8 274.2Q526.1 274.2 527 274.8Q528 275.4 528.5 276.5Q529 277.6 529 279.2V279.7H522.1Q522.2 281.2 522.9 282Q523.7 282.8 524.9 282.8Q525.8 282.8 526.4 282.3Q527 281.9 527.3 281.2L528.9 281.3Q528.5 282.6 527.5 283.4Q526.4 284.2 524.9 284.2ZM522.1 278.4H527.4Q527.3 277 526.6 276.3Q525.9 275.7 524.8 275.7Q523.7 275.7 523 276.4Q522.3 277 522.1 278.4ZM538 284.2Q536.5 284.2 535.6 283.5Q534.8 282.8 534.8 281.6Q534.8 280.4 535.5 279.7Q536.2 279 537.8 278.7L541.2 278.1Q541.2 275.7 538.9 275.7Q537.9 275.7 537.3 276.1Q536.7 276.6 536.5 277.4L534.9 277.3Q535.2 275.9 536.2 275.1Q537.3 274.2 538.9 274.2Q540.7 274.2 541.7 275.3Q542.7 276.3 542.7 278.1V282.1Q542.7 282.7 543.2 282.7H543.5V284Q543.3 284 543 284Q542.1 284 541.7 283.7Q541.3 283.4 541.2 282.6L541.2 282.5Q540.8 283.3 539.9 283.7Q539 284.2 538 284.2ZM538.1 282.9Q539.6 282.9 540.4 282.1Q541.2 281.3 541.2 280.1V279.4L538.1 280Q537.1 280.1 536.7 280.5Q536.3 280.9 536.3 281.5Q536.3 282.1 536.8 282.5Q537.3 282.9 538.1 282.9ZM545.1 284V274.5H546.5L546.5 276.2Q546.9 275.2 547.7 274.7Q548.4 274.2 549.4 274.2Q550.5 274.2 551.2 274.7Q552 275.2 552.3 276Q552.7 276.9 552.7 277.9V284H551.1V278.3Q551.1 277 550.7 276.3Q550.2 275.6 549.1 275.6Q548 275.6 547.3 276.3Q546.6 277 546.6 278.3V284ZM558.5 284.2Q557.3 284.2 556.4 283.6Q555.5 283 555 281.9Q554.5 280.8 554.5 279.2Q554.5 277.7 555 276.6Q555.5 275.5 556.4 274.9Q557.3 274.2 558.5 274.2Q559.5 274.2 560.3 274.6Q561.1 275.1 561.5 275.8V271.2H563V284H561.6L561.5 282.6Q561.2 283.3 560.3 283.8Q559.5 284.2 558.5 284.2ZM558.8 282.8Q560.1 282.8 560.8 281.8Q561.5 280.9 561.5 279.2Q561.5 277.6 560.8 276.6Q560.1 275.7 558.8 275.7Q557.6 275.7 556.8 276.6Q556.1 277.6 556.1 279.2Q556.1 280.9 556.8 281.8Q557.6 282.8 558.8 282.8Z"/><path fill="#8B8B8B" d="M4.8 312.2Q3.6 312.2 2.7 311.6Q1.8 311 1.3 309.9Q0.8 308.8 0.8 307.2Q0.8 305.7 1.3 304.6Q1.8 303.5 2.7 302.9Q3.6 302.2 4.8 302.2Q5.8 302.2 6.6 302.6Q7.4 303.1 7.8 303.8V299.2H9.3V312H7.9L7.8 310.6Q7.5 311.3 6.6 311.8Q5.8 312.2 4.8 312.2ZM5.1 310.8Q6.4 310.8 7.1 309.8Q7.8 308.9 7.8 307.2Q7.8 305.6 7.1 304.6Q6.4 303.7 5.1 303.7Q3.9 303.7 3.1 304.6Q2.4 305.6 2.4 307.2Q2.4 308.9 3.1 309.8Q3.9 310.8 5.1 310.8ZM15.5 312.2Q14.2 312.2 13.2 311.6Q12.2 311 11.7 309.9Q11.1 308.7 11.1 307.2Q11.1 305.7 11.7 304.6Q12.2 303.5 13.2 302.9Q14.1 302.2 15.4 302.2Q16.7 302.2 17.6 302.8Q18.6 303.4 19.1 304.5Q19.7 305.6 19.7 307.2V307.7H12.7Q12.8 309.2 13.5 310Q14.3 310.8 15.5 310.8Q16.5 310.8 17.1 310.3Q17.7 309.9 17.9 309.2L19.5 309.3Q19.1 310.6 18.1 311.4Q17 312.2 15.5 312.2ZM12.7 306.4H18Q17.9 305 17.2 304.3Q16.5 303.7 15.4 303.7Q14.3 303.7 13.6 304.4Q12.9 305 12.7 306.4ZM25 312.2Q23 312.2 22 311.3Q21 310.4 20.9 309L22.5 308.9Q22.6 309.8 23.2 310.3Q23.7 310.8 25 310.8Q26 310.8 26.5 310.5Q27 310.1 27 309.4Q27 309.1 26.9 308.8Q26.7 308.6 26.2 308.4Q25.7 308.2 24.7 308Q23.4 307.8 22.6 307.4Q21.9 307 21.6 306.5Q21.3 305.9 21.3 305.2Q21.3 303.9 22.2 303.1Q23.1 302.2 24.9 302.2Q26.1 302.2 26.9 302.7Q27.7 303.1 28.2 303.8Q28.6 304.5 28.7 305.3L27.1 305.4Q27 304.7 26.5 304.2Q26 303.7 24.8 303.7Q23.8 303.7 23.3 304.1Q22.8 304.5 22.8 305.1Q22.8 305.8 23.3 306.1Q23.7 306.5 25 306.7Q26.4 306.9 27.2 307.3Q28 307.6 28.3 308.2Q28.6 308.7 28.6 309.4Q28.6 310.8 27.6 311.5Q26.6 312.2 25 312.2ZM30.5 312V299.2H32V307.6L36.7 302.5H38.7L34.9 306.5L38.9 312H37L33.9 307.5L32 309.5V312ZM43.5 312Q42.2 312 41.6 311.4Q41 310.8 41 309.6V303.8H39.6V302.5H41V300.2H42.5V302.5H45V303.8H42.5V309.5Q42.5 310.2 42.8 310.4Q43.1 310.7 43.6 310.7H45V312ZM50.3 312.2Q49 312.2 48 311.6Q47 311 46.5 309.9Q46 308.7 46 307.2Q46 305.7 46.5 304.6Q47 303.5 48 302.9Q49 302.2 50.3 302.2Q51.6 302.2 52.6 302.9Q53.6 303.5 54.1 304.6Q54.7 305.7 54.7 307.2Q54.7 308.7 54.1 309.9Q53.6 311 52.6 311.6Q51.6 312.2 50.3 312.2ZM50.3 310.8Q51.6 310.8 52.4 309.8Q53.1 308.9 53.1 307.2Q53.1 305.6 52.4 304.6Q51.6 303.7 50.3 303.7Q49 303.7 48.3 304.6Q47.5 305.6 47.5 307.2Q47.5 308.9 48.3 309.8Q49 310.8 50.3 310.8ZM56.6 314.7V302.5H58L58 303.9Q58.4 303.1 59.2 302.7Q59.9 302.2 60.9 302.2Q62.3 302.2 63.2 302.9Q64.2 303.6 64.6 304.8Q65 305.9 65 307.2Q65 308.5 64.6 309.7Q64.2 310.8 63.2 311.5Q62.3 312.2 60.9 312.2Q60 312.2 59.2 311.8Q58.4 311.4 58.1 310.7V314.7ZM60.8 310.8Q62 310.8 62.7 309.8Q63.5 308.9 63.5 307.2Q63.5 305.6 62.7 304.6Q62 303.7 60.8 303.7Q59.5 303.7 58.8 304.6Q58.1 305.5 58.1 307.2Q58.1 309 58.8 309.9Q59.5 310.8 60.8 310.8ZM74.5 312.2Q73.1 312.2 72.3 311.3Q71.4 310.3 71.4 308.6V302.5H72.9V308.2Q72.9 309.6 73.4 310.2Q73.9 310.9 74.9 310.9Q76.1 310.9 76.7 310.2Q77.4 309.4 77.4 308.1V302.5H78.9V312H77.4V310.5Q76.6 312.2 74.5 312.2ZM84.6 312Q83.3 312 82.6 311.4Q82 310.8 82 309.6V303.8H80.6V302.5H82V300.2H83.5V302.5H86.1V303.8H83.5V309.5Q83.5 310.2 83.8 310.4Q84.1 310.7 84.7 310.7H86.1V312ZM87.7 312V302.5H89.2V312ZM87.6 301V299.2H89.2V301ZM93.6 312Q92.7 312 92.2 311.6Q91.7 311.1 91.7 310.2V299.2H93.2V310.1Q93.2 310.7 93.8 310.7H94.6V312ZM96.2 312V302.5H97.7V312ZM96.1 301V299.2H97.7V301ZM103.2 312Q101.9 312 101.2 311.4Q100.6 310.8 100.6 309.6V303.8H99.2V302.5H100.6V300.2H102.1V302.5H104.7V303.8H102.1V309.5Q102.1 310.2 102.4 310.4Q102.7 310.7 103.3 310.7H104.7V312ZM106.3 312V302.5H107.8V312ZM106.2 301V299.2H107.8V301ZM114 312.2Q112.7 312.2 111.7 311.6Q110.7 311 110.2 309.9Q109.6 308.7 109.6 307.2Q109.6 305.7 110.2 304.6Q110.7 303.5 111.7 302.9Q112.6 302.2 113.9 302.2Q115.2 302.2 116.1 302.8Q117.1 303.4 117.6 304.5Q118.2 305.6 118.2 307.2V307.7H111.2Q111.3 309.2 112 310Q112.8 310.8 114 310.8Q114.9 310.8 115.6 310.3Q116.2 309.9 116.4 309.2L118 309.3Q117.6 310.6 116.6 311.4Q115.5 312.2 114 312.2ZM111.2 306.4H116.5Q116.4 305 115.7 304.3Q115 303.7 113.9 303.7Q112.8 303.7 112.1 304.4Q111.4 305 111.2 306.4ZM123.5 312.2Q121.5 312.2 120.5 311.3Q119.5 310.4 119.4 309L121 308.9Q121.1 309.8 121.7 310.3Q122.2 310.8 123.5 310.8Q124.5 310.8 125 310.5Q125.5 310.1 125.5 309.4Q125.5 309.1 125.4 308.8Q125.2 308.6 124.7 308.4Q124.2 308.2 123.2 308Q121.9 307.8 121.1 307.4Q120.4 307 120.1 306.5Q119.8 305.9 119.8 305.2Q119.8 303.9 120.7 303.1Q121.6 302.2 123.4 302.2Q124.6 302.2 125.4 302.7Q126.2 303.1 126.6 303.8Q127.1 304.5 127.2 305.3L125.6 305.4Q125.5 304.7 125 304.2Q124.5 303.7 123.3 303.7Q122.3 303.7 121.8 304.1Q121.3 304.5 121.3 305.1Q121.3 305.8 121.8 306.1Q122.2 306.5 123.5 306.7Q124.9 306.9 125.7 307.3Q126.5 307.6 126.8 308.2Q127.1 308.7 127.1 309.4Q127.1 310.8 126.1 311.5Q125.1 312.2 123.5 312.2ZM128.6 312V310H130.6V312ZM141.6 312.3Q140.1 312.3 139 311.7Q137.9 311.2 137.3 310.2Q136.6 309.2 136.5 307.9L138.1 307.8Q138.3 309.2 139.2 310Q140.1 310.8 141.6 310.8Q142.9 310.8 143.7 310.3Q144.4 309.8 144.4 308.8Q144.4 308.2 144.2 307.7Q143.9 307.2 143.1 306.9Q142.3 306.5 140.8 306.1Q139.3 305.7 138.4 305.3Q137.6 304.8 137.2 304.2Q136.8 303.5 136.8 302.6Q136.8 301.5 137.3 300.7Q137.8 299.9 138.8 299.4Q139.7 298.9 141 298.9Q142.4 298.9 143.4 299.5Q144.4 300 145 300.9Q145.6 301.8 145.8 303L144.2 303.1Q144 301.9 143.2 301.2Q142.4 300.4 141 300.4Q139.8 300.4 139.1 301Q138.4 301.6 138.4 302.5Q138.4 303.1 138.7 303.5Q139 303.9 139.7 304.2Q140.4 304.5 141.7 304.8Q143.4 305.2 144.3 305.7Q145.2 306.3 145.6 307Q146.1 307.7 146.1 308.7Q146.1 309.8 145.5 310.6Q144.9 311.4 143.9 311.8Q142.9 312.3 141.6 312.3ZM148.5 312V299.2H150V304Q150.4 303.1 151.2 302.7Q151.9 302.2 152.9 302.2Q154.5 302.2 155.3 303.3Q156.1 304.3 156.1 305.9V312H154.6V306.3Q154.6 303.6 152.6 303.6Q151.4 303.6 150.7 304.3Q150 305 150 306.3V312ZM158.7 312V302.5H160.2V312ZM158.7 301V299.2H160.2V301ZM163 314.7V302.5H164.4L164.4 303.9Q164.9 303.1 165.6 302.7Q166.4 302.2 167.4 302.2Q168.8 302.2 169.7 302.9Q170.6 303.6 171 304.8Q171.5 305.9 171.5 307.2Q171.5 308.5 171 309.7Q170.6 310.8 169.7 311.5Q168.8 312.2 167.4 312.2Q166.4 312.2 165.7 311.8Q164.9 311.4 164.5 310.7V314.7ZM167.2 310.8Q168.5 310.8 169.2 309.8Q169.9 308.9 169.9 307.2Q169.9 305.6 169.2 304.6Q168.5 303.7 167.2 303.7Q166 303.7 165.2 304.6Q164.5 305.5 164.5 307.2Q164.5 309 165.2 309.9Q166 310.8 167.2 310.8ZM178.8 312V303.8H177.5V302.5H178.8V301.6Q178.8 300.5 179.4 299.9Q180 299.2 181.3 299.2H182.8V300.6H181.4Q180.9 300.6 180.6 300.9Q180.3 301.2 180.3 301.7V302.5H182.7V303.8H180.3V312ZM186.8 312.2Q185.3 312.2 184.5 311.5Q183.6 310.8 183.6 309.6Q183.6 308.4 184.3 307.7Q185 307 186.6 306.7L190 306.1Q190 303.7 187.7 303.7Q186.7 303.7 186.2 304.1Q185.6 304.6 185.4 305.4L183.8 305.3Q184 303.9 185.1 303.1Q186.1 302.2 187.7 302.2Q189.6 302.2 190.5 303.3Q191.5 304.3 191.5 306.1V310.1Q191.5 310.7 192 310.7H192.4V312Q192.2 312 191.8 312Q191 312 190.6 311.7Q190.1 311.4 190 310.6L190 310.5Q189.6 311.3 188.8 311.7Q187.9 312.2 186.8 312.2ZM187 310.9Q188.4 310.9 189.2 310.1Q190 309.3 190 308.1V307.4L186.9 308Q185.9 308.1 185.6 308.5Q185.2 308.9 185.2 309.5Q185.2 310.1 185.7 310.5Q186.1 310.9 187 310.9ZM197.4 312.2Q195.4 312.2 194.4 311.3Q193.3 310.4 193.2 309L194.8 308.9Q195 309.8 195.5 310.3Q196.1 310.8 197.4 310.8Q198.3 310.8 198.9 310.5Q199.4 310.1 199.4 309.4Q199.4 309.1 199.2 308.8Q199 308.6 198.5 308.4Q198 308.2 197.1 308Q195.7 307.8 195 307.4Q194.2 307 193.9 306.5Q193.6 305.9 193.6 305.2Q193.6 303.9 194.6 303.1Q195.5 302.2 197.2 302.2Q198.5 302.2 199.3 302.7Q200.1 303.1 200.5 303.8Q200.9 304.5 201 305.3L199.4 305.4Q199.3 304.7 198.9 304.2Q198.4 303.7 197.2 303.7Q196.2 303.7 195.7 304.1Q195.2 304.5 195.2 305.1Q195.2 305.8 195.6 306.1Q196.1 306.5 197.4 306.7Q198.8 306.9 199.5 307.3Q200.3 307.6 200.7 308.2Q201 308.7 201 309.4Q201 310.8 200 311.5Q198.9 312.2 197.4 312.2ZM206 312Q204.7 312 204.1 311.4Q203.5 310.8 203.5 309.6V303.8H202.1V302.5H203.5V300.2H205V302.5H207.5V303.8H205V309.5Q205 310.2 205.3 310.4Q205.6 310.7 206.2 310.7H207.5V312ZM209.2 314.8 210.1 312H209.2V310H211.2V311.7L210.1 314.8ZM220 312 216.6 302.5H218.2L221 310.5L223.8 302.5H225.4L221.9 312ZM230.3 312.2Q229 312.2 228 311.6Q227 311 226.5 309.9Q226 308.7 226 307.2Q226 305.7 226.5 304.6Q227 303.5 228 302.9Q228.9 302.2 230.3 302.2Q231.5 302.2 232.5 302.8Q233.4 303.4 233.9 304.5Q234.5 305.6 234.5 307.2V307.7H227.5Q227.6 309.2 228.4 310Q229.1 310.8 230.3 310.8Q231.3 310.8 231.9 310.3Q232.5 309.9 232.7 309.2L234.3 309.3Q233.9 310.6 232.9 311.4Q231.8 312.2 230.3 312.2ZM227.5 306.4H232.8Q232.7 305 232 304.3Q231.3 303.7 230.3 303.7Q229.2 303.7 228.4 304.4Q227.7 305 227.5 306.4ZM236.3 312V302.5H237.7L237.7 304.2Q238.2 302.5 240 302.5H240.9V303.9H240Q237.9 303.9 237.9 306.2V312ZM242.4 312V302.5H244V312ZM242.4 301V299.2H244V301ZM246.7 312V303.8H245.4V302.5H246.7V301.6Q246.7 300.5 247.4 299.9Q248 299.2 249.3 299.2H250.8V300.6H249.4Q248.8 300.6 248.5 300.9Q248.3 301.2 248.3 301.7V302.5H250.6V303.8H248.3V312ZM252.4 314.7V313.4H253.5Q254 313.4 254.3 313.2Q254.5 313.1 254.6 312.7L255 311.8H254.5L251 302.5H252.6L255.5 310.4L258.2 302.5H259.8L256 313.2Q255.7 314 255.2 314.3Q254.6 314.7 253.7 314.7ZM269.5 312.2Q268.2 312.2 267.2 311.6Q266.2 311 265.7 309.9Q265.2 308.7 265.2 307.2Q265.2 305.7 265.7 304.6Q266.2 303.5 267.2 302.9Q268.2 302.2 269.5 302.2Q270.7 302.2 271.7 302.8Q272.6 303.4 273.2 304.5Q273.7 305.6 273.7 307.2V307.7H266.8Q266.8 309.2 267.6 310Q268.3 310.8 269.5 310.8Q270.5 310.8 271.1 310.3Q271.7 309.9 271.9 309.2L273.5 309.3Q273.2 310.6 272.1 311.4Q271.1 312.2 269.5 312.2ZM266.8 306.4H272Q271.9 305 271.2 304.3Q270.5 303.7 269.5 303.7Q268.4 303.7 267.7 304.4Q267 305 266.8 306.4ZM277.7 312 274.2 302.5H275.9L278.7 310.5L281.4 302.5H283.1L279.6 312ZM288 312.2Q286.7 312.2 285.7 311.6Q284.7 311 284.2 309.9Q283.6 308.7 283.6 307.2Q283.6 305.7 284.2 304.6Q284.7 303.5 285.7 302.9Q286.6 302.2 287.9 302.2Q289.2 302.2 290.1 302.8Q291.1 303.4 291.6 304.5Q292.2 305.6 292.2 307.2V307.7H285.2Q285.3 309.2 286 310Q286.8 310.8 288 310.8Q289 310.8 289.6 310.3Q290.2 309.9 290.4 309.2L292 309.3Q291.6 310.6 290.6 311.4Q289.5 312.2 288 312.2ZM285.2 306.4H290.5Q290.4 305 289.7 304.3Q289 303.7 287.9 303.7Q286.8 303.7 286.1 304.4Q285.4 305 285.2 306.4ZM294 312V302.5H295.4L295.4 304.2Q295.9 302.5 297.7 302.5H298.6V303.9H297.7Q295.5 303.9 295.5 306.2V312ZM300.6 314.7V313.4H301.7Q302.2 313.4 302.5 313.2Q302.7 313.1 302.8 312.7L303.2 311.8H302.7L299.2 302.5H300.8L303.7 310.4L306.4 302.5H308.1L304.2 313.2Q303.9 314 303.4 314.3Q302.8 314.7 301.9 314.7ZM312.8 312Q311.5 312 310.9 311.4Q310.2 310.8 310.2 309.6V303.8H308.8V302.5H310.2V300.2H311.7V302.5H314.3V303.8H311.7V309.5Q311.7 310.2 312 310.4Q312.3 310.7 312.9 310.7H314.3V312ZM315.9 312V299.2H317.4V304Q317.8 303.1 318.5 302.7Q319.3 302.2 320.3 302.2Q321.8 302.2 322.6 303.3Q323.4 304.3 323.4 305.9V312H321.9V306.3Q321.9 303.6 319.9 303.6Q318.8 303.6 318.1 304.3Q317.4 305 317.4 306.3V312ZM326 312V302.5H327.5V312ZM326 301V299.2H327.6V301ZM330.4 312V302.5H331.7L331.8 304.2Q332.2 303.2 332.9 302.7Q333.7 302.2 334.7 302.2Q335.8 302.2 336.5 302.7Q337.2 303.2 337.6 304Q337.9 304.9 337.9 305.9V312H336.4V306.3Q336.4 305 335.9 304.3Q335.5 303.6 334.4 303.6Q333.3 303.6 332.6 304.3Q331.9 305 331.9 306.3V312ZM344 314.9Q342.5 314.9 341.4 314.2Q340.3 313.4 340 312.1L341.6 312Q341.8 312.7 342.4 313.1Q342.9 313.5 344 313.5Q345.3 313.5 346 313Q346.7 312.4 346.7 311.4V309.8Q346.4 310.6 345.6 311Q344.9 311.5 343.9 311.5Q342.7 311.5 341.8 310.9Q340.8 310.3 340.3 309.3Q339.8 308.2 339.8 306.9Q339.8 305.5 340.3 304.5Q340.8 303.4 341.7 302.8Q342.7 302.2 343.9 302.2Q344.9 302.2 345.7 302.7Q346.5 303.2 346.8 304V302.5H348.2V311.4Q348.2 313 347.1 314Q346 314.9 344 314.9ZM344 310.1Q345.2 310.1 346 309.2Q346.7 308.3 346.7 306.9Q346.8 305.4 346 304.5Q345.2 303.7 344 303.7Q342.7 303.7 342 304.5Q341.4 305.4 341.4 306.9Q341.4 308.3 342.1 309.2Q342.8 310.1 344 310.1ZM350.3 312V310H352.3V312Z"/></svg>
