<svg xmlns="http://www.w3.org/2000/svg" width="830" height="242" viewBox="0 0 830 242" role="img" aria-label="Languages: TypeScript 69.3%, JavaScript 12.3%, Swift 7.9%, Shell 3.6%, CSS 2.6%, Rust 2.3%, HTML 0.5%, PLpgSQL 0.5%"><title>Languages: TypeScript 69.3%, JavaScript 12.3%, Swift 7.9%, Shell 3.6%, CSS 2.6%, Rust 2.3%, HTML 0.5%, PLpgSQL 0.5%</title><path fill="#0A0A0A" d="M1.7 40V25.8H3.9V38H10.8V40ZM15.7 40.2Q14.1 40.2 13.1 39.5Q12.1 38.7 12.1 37.3Q12.1 36 12.9 35.2Q13.8 34.4 15.5 34.1L19.2 33.4Q19.2 30.9 16.9 30.9Q15.8 30.9 15.3 31.4Q14.7 31.8 14.5 32.7L12.3 32.6Q12.6 31 13.8 30Q15 29.1 16.9 29.1Q19 29.1 20.1 30.3Q21.3 31.4 21.3 33.5V37.6Q21.3 38 21.4 38.2Q21.5 38.3 21.8 38.3H22.2V40Q21.9 40.1 21.4 40.1Q20.5 40.1 20 39.7Q19.5 39.3 19.3 38.4V38.4Q18.9 39.2 18 39.7Q17 40.2 15.7 40.2ZM16.1 38.6Q17.5 38.6 18.3 37.7Q19.2 36.9 19.2 35.7V35L16 35.6Q15.1 35.8 14.7 36.1Q14.3 36.5 14.3 37.1Q14.3 37.8 14.8 38.2Q15.2 38.6 16.1 38.6ZM23.6 40V29.4H25.5L25.6 31.2Q26 30.1 26.9 29.6Q27.7 29.1 28.8 29.1Q30 29.1 30.8 29.6Q31.6 30.2 32 31.1Q32.4 32 32.4 33.2V40H30.3V33.8Q30.3 32.4 29.8 31.6Q29.4 30.9 28.2 30.9Q27.1 30.9 26.4 31.6Q25.7 32.4 25.7 33.8V40ZM39.1 43.2Q37.2 43.2 36 42.4Q34.8 41.6 34.4 40.2L36.6 40Q36.8 40.7 37.4 41.1Q37.9 41.5 39.1 41.5Q40.4 41.5 41.1 40.9Q41.8 40.4 41.8 39.2V37.7Q41.4 38.5 40.6 39Q39.7 39.5 38.7 39.5Q37.4 39.5 36.3 38.8Q35.3 38.2 34.7 37Q34.1 35.8 34.1 34.3Q34.1 32.8 34.7 31.6Q35.3 30.4 36.3 29.8Q37.3 29.1 38.6 29.1Q39.8 29.1 40.6 29.6Q41.5 30.2 41.9 31V29.4H43.9V39.2Q43.9 41.1 42.6 42.2Q41.3 43.2 39.1 43.2ZM39 37.7Q40.3 37.7 41 36.8Q41.8 35.9 41.8 34.3Q41.8 32.7 41.1 31.8Q40.3 30.9 39 30.9Q37.7 30.9 37 31.8Q36.3 32.7 36.3 34.3Q36.3 35.8 37 36.8Q37.8 37.7 39 37.7ZM50 40.2Q48.4 40.2 47.5 39.2Q46.5 38.1 46.5 36.2V29.4H48.6V35.7Q48.6 37.1 49.1 37.8Q49.6 38.5 50.7 38.5Q51.8 38.5 52.5 37.7Q53.1 37 53.1 35.6V29.4H55.2V40H53.3L53.2 38.3Q52.4 40.2 50 40.2ZM60.8 40.2Q59.2 40.2 58.2 39.5Q57.2 38.7 57.2 37.3Q57.2 36 58 35.2Q58.8 34.4 60.6 34.1L64.2 33.4Q64.2 30.9 61.9 30.9Q60.9 30.9 60.3 31.4Q59.8 31.8 59.5 32.7L57.4 32.6Q57.7 31 58.9 30Q60 29.1 61.9 29.1Q64.1 29.1 65.2 30.3Q66.4 31.4 66.4 33.5V37.6Q66.4 38 66.5 38.2Q66.6 38.3 66.9 38.3H67.3V40Q67 40.1 66.5 40.1Q65.6 40.1 65.1 39.7Q64.6 39.3 64.4 38.4V38.4Q64 39.2 63 39.7Q62.1 40.2 60.8 40.2ZM61.2 38.6Q62.6 38.6 63.4 37.7Q64.2 36.9 64.2 35.7V35L61.1 35.6Q60.2 35.8 59.8 36.1Q59.4 36.5 59.4 37.1Q59.4 37.8 59.9 38.2Q60.3 38.6 61.2 38.6ZM72.9 43.2Q71 43.2 69.8 42.4Q68.6 41.6 68.2 40.2L70.4 40Q70.7 40.7 71.2 41.1Q71.8 41.5 72.9 41.5Q74.2 41.5 74.9 40.9Q75.6 40.4 75.6 39.2V37.7Q75.2 38.5 74.4 39Q73.5 39.5 72.5 39.5Q71.2 39.5 70.1 38.8Q69.1 38.2 68.5 37Q67.9 35.8 67.9 34.3Q67.9 32.8 68.5 31.6Q69.1 30.4 70.1 29.8Q71.1 29.1 72.4 29.1Q73.6 29.1 74.5 29.6Q75.3 30.2 75.7 31V29.4H77.7V39.2Q77.7 41.1 76.4 42.2Q75.1 43.2 72.9 43.2ZM72.9 37.7Q74.1 37.7 74.9 36.8Q75.6 35.9 75.6 34.3Q75.6 32.7 74.9 31.8Q74.1 30.9 72.9 30.9Q71.6 30.9 70.9 31.8Q70.1 32.7 70.1 34.3Q70.1 35.8 70.9 36.8Q71.6 37.7 72.9 37.7ZM84.5 40.2Q83 40.2 81.8 39.5Q80.7 38.9 80.1 37.6Q79.5 36.4 79.5 34.7Q79.5 33 80.1 31.8Q80.7 30.5 81.8 29.8Q82.9 29.1 84.5 29.1Q85.9 29.1 87 29.8Q88.1 30.5 88.7 31.7Q89.3 33 89.3 34.8V35.3H81.7Q81.8 36.9 82.5 37.6Q83.3 38.4 84.5 38.4Q85.5 38.4 86.1 38Q86.7 37.6 87 36.8L89.2 36.9Q88.7 38.4 87.5 39.3Q86.3 40.2 84.5 40.2ZM81.7 33.7H87.1Q87 32.3 86.3 31.6Q85.5 30.9 84.5 30.9Q83.3 30.9 82.6 31.6Q81.9 32.3 81.7 33.7ZM95.2 40.2Q92.8 40.2 91.7 39.2Q90.5 38.2 90.4 36.6L92.6 36.5Q92.7 37.4 93.3 37.9Q93.9 38.5 95.2 38.5Q96.2 38.5 96.7 38.1Q97.2 37.8 97.2 37.1Q97.2 36.7 97 36.5Q96.9 36.2 96.3 36Q95.8 35.8 94.8 35.6Q93.2 35.3 92.4 34.9Q91.5 34.5 91.1 33.9Q90.8 33.3 90.8 32.4Q90.8 31 91.9 30Q93 29.1 95.1 29.1Q96.5 29.1 97.5 29.6Q98.4 30.1 98.9 30.9Q99.4 31.7 99.5 32.6L97.3 32.7Q97.2 32 96.7 31.4Q96.2 30.9 95 30.9Q94 30.9 93.5 31.3Q93 31.7 93 32.3Q93 33 93.5 33.4Q93.9 33.7 95.2 33.9Q96.8 34.2 97.8 34.6Q98.7 35 99 35.6Q99.4 36.2 99.4 37.1Q99.4 38.6 98.2 39.4Q97.1 40.2 95.2 40.2Z"/><path fill="#6B6B6B" d="M567 40V29.4H570.7Q572.6 29.4 573.5 30Q574.5 30.7 574.5 32.2Q574.5 33.1 574 33.7Q573.5 34.3 572.6 34.5Q573.7 34.6 574.3 35.3Q574.9 36 574.9 37.1Q574.9 38.5 574 39.3Q573 40 571.3 40ZM568.3 34H570.7Q571.9 34 572.5 33.5Q573.1 33.1 573.1 32.3Q573.1 30.6 570.7 30.6H568.3ZM568.3 38.7H571.3Q572.4 38.7 573 38.3Q573.6 37.8 573.6 37Q573.6 36.2 573 35.7Q572.4 35.2 571.3 35.2H568.3ZM576.9 42.2V41.1H577.8Q578.2 41.1 578.4 41Q578.6 40.9 578.7 40.6L579 39.9H578.6L575.7 32H577L579.4 38.7L581.7 32H583.1L579.8 41Q579.6 41.6 579.2 42Q578.7 42.2 577.9 42.2ZM591.8 40.2Q591 40.2 590.4 39.8Q589.7 39.4 589.4 38.8L589.3 40H588.2V29.4H589.4V33.2Q589.7 32.7 590.4 32.3Q591 31.9 591.8 31.9Q592.9 31.9 593.6 32.4Q594.4 32.9 594.8 33.8Q595.2 34.8 595.2 36Q595.2 37.3 594.8 38.2Q594.4 39.2 593.6 39.7Q592.9 40.2 591.8 40.2ZM591.8 39Q592.8 39 593.3 38.2Q593.9 37.4 593.9 36Q593.9 34.6 593.3 33.9Q592.8 33.1 591.8 33.1Q590.7 33.1 590.1 33.9Q589.4 34.6 589.4 36Q589.4 37.4 590.1 38.2Q590.7 39 591.8 39ZM597 42.2V41.1H597.9Q598.3 41.1 598.5 41Q598.7 40.9 598.8 40.6L599.1 39.9H598.7L595.8 32H597.2L599.5 38.7L601.8 32H603.2L600 41Q599.7 41.6 599.3 42Q598.8 42.2 598 42.2ZM607.2 40Q606.1 40 605.6 39.5Q605.1 39 605.1 38V33.2H603.9V32H605.1V30.2H606.3V32H608.4V33.2H606.3V37.9Q606.3 38.5 606.6 38.7Q606.8 38.9 607.3 38.9H608.4V40ZM612.9 40.2Q611.8 40.2 611 39.7Q610.2 39.2 609.7 38.2Q609.3 37.3 609.3 36Q609.3 34.8 609.7 33.8Q610.2 32.9 611 32.4Q611.8 31.9 612.9 31.9Q613.9 31.9 614.7 32.4Q615.5 32.8 616 33.8Q616.4 34.7 616.4 36V36.4H610.6Q610.7 37.7 611.3 38.3Q611.9 39 612.9 39Q613.7 39 614.2 38.6Q614.7 38.2 614.9 37.6L616.3 37.8Q616 38.8 615.1 39.5Q614.2 40.2 612.9 40.2ZM610.6 35.3H615Q614.9 34.1 614.4 33.6Q613.8 33.1 612.9 33.1Q612 33.1 611.4 33.6Q610.8 34.2 610.6 35.3ZM620.9 40.2Q619.3 40.2 618.4 39.4Q617.6 38.7 617.5 37.5L618.8 37.4Q618.9 38.1 619.4 38.6Q619.9 39 620.9 39Q621.7 39 622.2 38.7Q622.6 38.5 622.6 37.9Q622.6 37.6 622.5 37.3Q622.3 37.1 621.9 37Q621.5 36.8 620.7 36.7Q619.6 36.5 619 36.1Q618.3 35.8 618.1 35.4Q617.8 34.9 617.8 34.3Q617.8 33.2 618.6 32.6Q619.4 31.9 620.8 31.9Q621.9 31.9 622.5 32.2Q623.2 32.6 623.6 33.2Q623.9 33.8 624 34.4L622.7 34.5Q622.6 33.9 622.2 33.5Q621.8 33.1 620.8 33.1Q619.9 33.1 619.5 33.4Q619.1 33.7 619.1 34.2Q619.1 34.8 619.5 35.1Q619.9 35.4 620.9 35.6Q622.1 35.8 622.8 36.1Q623.4 36.4 623.7 36.8Q623.9 37.2 623.9 37.9Q623.9 39 623.1 39.6Q622.2 40.2 620.9 40.2ZM632.5 40.2Q631.4 40.2 630.6 39.7Q629.8 39.2 629.3 38.2Q628.9 37.3 628.9 36Q628.9 34.8 629.3 33.8Q629.8 32.9 630.6 32.4Q631.4 31.9 632.5 31.9Q633.6 31.9 634.5 32.4Q635.3 32.9 635.7 33.8Q636.2 34.8 636.2 36Q636.2 37.3 635.7 38.2Q635.3 39.2 634.5 39.7Q633.6 40.2 632.5 40.2ZM632.5 39Q633.6 39 634.2 38.2Q634.9 37.4 634.9 36Q634.9 34.6 634.2 33.9Q633.6 33.1 632.5 33.1Q631.4 33.1 630.8 33.9Q630.2 34.6 630.2 36Q630.2 37.4 630.8 38.2Q631.4 39 632.5 39ZM638.3 40V33.2H637.2V32H638.3V31.3Q638.3 30.4 638.8 29.9Q639.3 29.4 640.4 29.4H641.6V30.5H640.5Q640 30.5 639.8 30.7Q639.5 31 639.5 31.4V32H641.5V33.2H639.5V40ZM650.1 40.2Q649 40.2 648.2 39.7Q647.4 39.2 646.9 38.2Q646.5 37.3 646.5 36Q646.5 34.8 646.9 33.8Q647.4 32.9 648.2 32.4Q649 31.9 650.1 31.9Q651.5 31.9 652.4 32.6Q653.3 33.3 653.5 34.6L652.2 34.7Q652.1 33.9 651.5 33.5Q650.9 33.1 650.1 33.1Q649 33.1 648.4 33.9Q647.8 34.6 647.8 36Q647.8 37.4 648.4 38.2Q649 39 650.1 39Q650.9 39 651.5 38.5Q652.1 38.1 652.2 37.2L653.5 37.3Q653.3 38.6 652.4 39.4Q651.5 40.2 650.1 40.2ZM658.1 40.2Q657 40.2 656.2 39.7Q655.4 39.2 654.9 38.2Q654.5 37.3 654.5 36Q654.5 34.8 654.9 33.8Q655.4 32.9 656.2 32.4Q657 31.9 658.1 31.9Q659.2 31.9 660 32.4Q660.8 32.9 661.3 33.8Q661.7 34.8 661.7 36Q661.7 37.3 661.3 38.2Q660.8 39.2 660 39.7Q659.2 40.2 658.1 40.2ZM658.1 39Q659.2 39 659.8 38.2Q660.4 37.4 660.4 36Q660.4 34.6 659.8 33.9Q659.2 33.1 658.1 33.1Q657 33.1 656.4 33.9Q655.8 34.6 655.8 36Q655.8 37.4 656.4 38.2Q657 39 658.1 39ZM666.2 40.2Q665.2 40.2 664.4 39.7Q663.6 39.2 663.2 38.2Q662.8 37.3 662.8 36Q662.8 34.8 663.2 33.8Q663.6 32.9 664.4 32.4Q665.2 31.9 666.2 31.9Q667 31.9 667.6 32.2Q668.3 32.5 668.6 33.2V29.4H669.9V40H668.8L668.7 38.8Q668.4 39.4 667.7 39.8Q667 40.2 666.2 40.2ZM666.4 39Q667.5 39 668.1 38.2Q668.6 37.4 668.6 36Q668.6 34.6 668.1 33.9Q667.5 33.1 666.4 33.1Q665.4 33.1 664.8 33.9Q664.1 34.6 664.1 36Q664.1 37.4 664.8 38.2Q665.4 39 666.4 39ZM675.2 40.2Q674 40.2 673.2 39.7Q672.4 39.2 672 38.2Q671.5 37.3 671.5 36Q671.5 34.8 672 33.8Q672.4 32.9 673.2 32.4Q674 31.9 675.1 31.9Q676.1 31.9 676.9 32.4Q677.7 32.8 678.2 33.8Q678.6 34.7 678.6 36V36.4H672.8Q672.9 37.7 673.5 38.3Q674.1 39 675.2 39Q676 39 676.5 38.6Q677 38.2 677.2 37.6L678.5 37.8Q678.2 38.8 677.3 39.5Q676.4 40.2 675.2 40.2ZM672.8 35.3H677.2Q677.2 34.1 676.6 33.6Q676 33.1 675.1 33.1Q674.2 33.1 673.6 33.6Q673 34.2 672.8 35.3ZM686.2 40.2Q685 40.2 684.3 39.6Q683.5 39 683.5 38Q683.5 37 684.1 36.4Q684.7 35.8 686 35.6L688.9 35.1Q688.9 33.1 687 33.1Q686.2 33.1 685.7 33.4Q685.2 33.8 685 34.5L683.7 34.4Q683.9 33.3 684.8 32.6Q685.6 31.9 687 31.9Q688.5 31.9 689.3 32.7Q690.1 33.6 690.1 35.1V38.4Q690.1 38.9 690.5 38.9H690.9V40Q690.7 40 690.4 40Q689.7 40 689.3 39.8Q689 39.5 688.9 38.8L688.9 38.8Q688.6 39.4 687.8 39.8Q687.1 40.2 686.2 40.2ZM686.3 39.1Q687.5 39.1 688.2 38.4Q688.9 37.7 688.9 36.7V36.2L686.3 36.6Q685.5 36.8 685.2 37.1Q684.9 37.4 684.9 37.9Q684.9 38.5 685.3 38.8Q685.7 39.1 686.3 39.1ZM695.3 40.2Q694.2 40.2 693.4 39.7Q692.5 39.2 692.1 38.2Q691.6 37.3 691.6 36Q691.6 34.8 692.1 33.8Q692.5 32.9 693.4 32.4Q694.2 31.9 695.3 31.9Q696.7 31.9 697.6 32.6Q698.5 33.3 698.7 34.6L697.3 34.7Q697.2 33.9 696.7 33.5Q696.1 33.1 695.3 33.1Q694.2 33.1 693.6 33.9Q693 34.6 693 36Q693 37.4 693.6 38.2Q694.2 39 695.3 39Q696.1 39 696.7 38.5Q697.2 38.1 697.3 37.2L698.7 37.3Q698.5 38.6 697.6 39.4Q696.7 40.2 695.3 40.2ZM700.1 40V32H701.3L701.3 33.5Q701.7 32 703.2 32H704V33.2H703.2Q701.4 33.2 701.4 35.2V40ZM708.3 40.2Q707.2 40.2 706.3 39.7Q705.5 39.2 705.1 38.2Q704.6 37.3 704.6 36Q704.6 34.8 705.1 33.8Q705.5 32.9 706.3 32.4Q707.2 31.9 708.3 31.9Q709.4 31.9 710.2 32.4Q711 32.9 711.4 33.8Q711.9 34.8 711.9 36Q711.9 37.3 711.4 38.2Q711 39.2 710.2 39.7Q709.4 40.2 708.3 40.2ZM708.3 39Q709.4 39 710 38.2Q710.6 37.4 710.6 36Q710.6 34.6 710 33.9Q709.4 33.1 708.3 33.1Q707.2 33.1 706.6 33.9Q705.9 34.6 705.9 36Q705.9 37.4 706.6 38.2Q707.2 39 708.3 39ZM716.4 40.2Q714.8 40.2 713.9 39.4Q713.1 38.7 713 37.5L714.3 37.4Q714.4 38.1 714.9 38.6Q715.4 39 716.4 39Q717.2 39 717.7 38.7Q718.1 38.5 718.1 37.9Q718.1 37.6 718 37.3Q717.8 37.1 717.4 37Q717 36.8 716.2 36.7Q715.1 36.5 714.4 36.1Q713.8 35.8 713.6 35.4Q713.3 34.9 713.3 34.3Q713.3 33.2 714.1 32.6Q714.9 31.9 716.3 31.9Q717.4 31.9 718 32.2Q718.7 32.6 719 33.2Q719.4 33.8 719.5 34.4L718.1 34.5Q718.1 33.9 717.7 33.5Q717.3 33.1 716.3 33.1Q715.4 33.1 715 33.4Q714.6 33.7 714.6 34.2Q714.6 34.8 715 35.1Q715.4 35.4 716.4 35.6Q717.6 35.8 718.3 36.1Q718.9 36.4 719.2 36.8Q719.4 37.2 719.4 37.9Q719.4 39 718.6 39.6Q717.7 40.2 716.4 40.2ZM724 40.2Q722.4 40.2 721.5 39.4Q720.7 38.7 720.6 37.5L721.9 37.4Q722 38.1 722.5 38.6Q722.9 39 724 39Q724.8 39 725.2 38.7Q725.7 38.5 725.7 37.9Q725.7 37.6 725.5 37.3Q725.4 37.1 725 37Q724.6 36.8 723.8 36.7Q722.6 36.5 722 36.1Q721.4 35.8 721.1 35.4Q720.9 34.9 720.9 34.3Q720.9 33.2 721.7 32.6Q722.5 31.9 723.9 31.9Q724.9 31.9 725.6 32.2Q726.3 32.6 726.6 33.2Q727 33.8 727 34.4L725.7 34.5Q725.7 33.9 725.2 33.5Q724.8 33.1 723.9 33.1Q723 33.1 722.6 33.4Q722.2 33.7 722.2 34.2Q722.2 34.8 722.6 35.1Q722.9 35.4 724 35.6Q725.2 35.8 725.8 36.1Q726.5 36.4 726.7 36.8Q727 37.2 727 37.9Q727 39 726.2 39.6Q725.3 40.2 724 40.2ZM734.6 40.2Q733.4 40.2 732.7 39.6Q732 39 732 38Q732 37 732.6 36.4Q733.2 35.8 734.5 35.6L737.3 35.1Q737.3 33.1 735.4 33.1Q734.6 33.1 734.1 33.4Q733.6 33.8 733.4 34.5L732.1 34.4Q732.3 33.3 733.2 32.6Q734 31.9 735.4 31.9Q736.9 31.9 737.7 32.7Q738.5 33.6 738.5 35.1V38.4Q738.5 38.9 739 38.9H739.3V40Q739.1 40 738.8 40Q738.1 40 737.8 39.8Q737.4 39.5 737.3 38.8L737.3 38.8Q737 39.4 736.3 39.8Q735.5 40.2 734.6 40.2ZM734.8 39.1Q736 39.1 736.6 38.4Q737.3 37.7 737.3 36.7V36.2L734.7 36.6Q733.9 36.8 733.6 37.1Q733.3 37.4 733.3 37.9Q733.3 38.5 733.7 38.8Q734.1 39.1 734.8 39.1ZM742.1 40Q741.4 40 741 39.6Q740.5 39.3 740.5 38.5V29.4H741.8V38.4Q741.8 38.9 742.3 38.9H743V40ZM745.9 40Q745.2 40 744.8 39.6Q744.3 39.3 744.3 38.5V29.4H745.6V38.4Q745.6 38.9 746.1 38.9H746.8V40ZM751.9 40V32H753L753.1 33.5Q753.5 32 755 32H755.8V33.2H755Q753.2 33.2 753.2 35.2V40ZM760 40.2Q758.9 40.2 758.1 39.7Q757.3 39.2 756.8 38.2Q756.4 37.3 756.4 36Q756.4 34.8 756.8 33.8Q757.3 32.9 758.1 32.4Q758.9 31.9 760 31.9Q761 31.9 761.8 32.4Q762.6 32.8 763 33.8Q763.5 34.7 763.5 36V36.4H757.7Q757.8 37.7 758.4 38.3Q759 39 760 39Q760.8 39 761.3 38.6Q761.8 38.2 762 37.6L763.4 37.8Q763.1 38.8 762.2 39.5Q761.3 40.2 760 40.2ZM757.7 35.3H762.1Q762 34.1 761.4 33.6Q760.9 33.1 760 33.1Q759.1 33.1 758.5 33.6Q757.9 34.2 757.7 35.3ZM765.1 42.2V32H766.3L766.3 33.3Q766.7 32.6 767.3 32.2Q767.9 31.9 768.8 31.9Q769.9 31.9 770.7 32.5Q771.5 33 771.8 34Q772.2 34.9 772.2 36Q772.2 37.1 771.8 38.1Q771.5 39 770.7 39.6Q769.9 40.2 768.8 40.2Q768 40.2 767.3 39.9Q766.7 39.5 766.4 39V42.2ZM768.6 39Q769.7 39 770.3 38.2Q770.9 37.4 770.9 36Q770.9 34.6 770.3 33.9Q769.7 33.1 768.6 33.1Q767.6 33.1 767 33.8Q766.4 34.6 766.4 36Q766.4 37.5 767 38.2Q767.6 39 768.6 39ZM776.9 40.2Q775.8 40.2 775 39.7Q774.2 39.2 773.7 38.2Q773.3 37.3 773.3 36Q773.3 34.8 773.7 33.8Q774.2 32.9 775 32.4Q775.8 31.9 776.9 31.9Q778 31.9 778.8 32.4Q779.7 32.9 780.1 33.8Q780.6 34.8 780.6 36Q780.6 37.3 780.1 38.2Q779.7 39.2 778.8 39.7Q778 40.2 776.9 40.2ZM776.9 39Q778 39 778.6 38.2Q779.2 37.4 779.2 36Q779.2 34.6 778.6 33.9Q778 33.1 776.9 33.1Q775.8 33.1 775.2 33.9Q774.6 34.6 774.6 36Q774.6 37.4 775.2 38.2Q775.8 39 776.9 39ZM785.1 40.2Q783.5 40.2 782.6 39.4Q781.7 38.7 781.7 37.5L783 37.4Q783.1 38.1 783.6 38.6Q784 39 785.1 39Q785.9 39 786.3 38.7Q786.8 38.5 786.8 37.9Q786.8 37.6 786.6 37.3Q786.5 37.1 786.1 37Q785.7 36.8 784.9 36.7Q783.7 36.5 783.1 36.1Q782.5 35.8 782.2 35.4Q782 34.9 782 34.3Q782 33.2 782.8 32.6Q783.5 31.9 785 31.9Q786 31.9 786.7 32.2Q787.4 32.6 787.7 33.2Q788.1 33.8 788.1 34.4L786.8 34.5Q786.8 33.9 786.3 33.5Q785.9 33.1 785 33.1Q784.1 33.1 783.7 33.4Q783.3 33.7 783.3 34.2Q783.3 34.8 783.7 35.1Q784 35.4 785.1 35.6Q786.3 35.8 786.9 36.1Q787.6 36.4 787.8 36.8Q788.1 37.2 788.1 37.9Q788.1 39 787.3 39.6Q786.4 40.2 785.1 40.2ZM789.8 40V32H791V40ZM789.7 30.8V29.3H791.1V30.8ZM795.7 40Q794.6 40 794.1 39.5Q793.6 39 793.6 38V33.2H792.4V32H793.6V30.2H794.8V32H796.9V33.2H794.8V37.9Q794.8 38.5 795.1 38.7Q795.3 38.9 795.8 38.9H796.9V40ZM801.4 40.2Q800.3 40.2 799.5 39.7Q798.7 39.2 798.2 38.2Q797.8 37.3 797.8 36Q797.8 34.8 798.2 33.8Q798.7 32.9 799.5 32.4Q800.3 31.9 801.4 31.9Q802.5 31.9 803.3 32.4Q804.2 32.9 804.6 33.8Q805.1 34.8 805.1 36Q805.1 37.3 804.6 38.2Q804.2 39.2 803.3 39.7Q802.5 40.2 801.4 40.2ZM801.4 39Q802.5 39 803.1 38.2Q803.7 37.4 803.7 36Q803.7 34.6 803.1 33.9Q802.5 33.1 801.4 33.1Q800.3 33.1 799.7 33.9Q799.1 34.6 799.1 36Q799.1 37.4 799.7 38.2Q800.3 39 801.4 39ZM806.7 40V32H807.8L807.8 33.5Q808.3 32 809.7 32H810.5V33.2H809.8Q808 33.2 808 35.2V40ZM811.9 40V32H813.1V40ZM811.8 30.8V29.3H813.1V30.8ZM818.4 40.2Q817.3 40.2 816.4 39.7Q815.6 39.2 815.2 38.2Q814.7 37.3 814.7 36Q814.7 34.8 815.2 33.8Q815.6 32.9 816.4 32.4Q817.2 31.9 818.3 31.9Q819.4 31.9 820.2 32.4Q821 32.8 821.4 33.8Q821.8 34.7 821.8 36V36.4H816.1Q816.1 37.7 816.7 38.3Q817.4 39 818.4 39Q819.2 39 819.7 38.6Q820.2 38.2 820.4 37.6L821.7 37.8Q821.4 38.8 820.5 39.5Q819.7 40.2 818.4 40.2ZM816.1 35.3H820.5Q820.4 34.1 819.8 33.6Q819.2 33.1 818.3 33.1Q817.4 33.1 816.8 33.6Q816.2 34.2 816.1 35.3ZM826.4 40.2Q824.7 40.2 823.9 39.4Q823 38.7 822.9 37.5L824.3 37.4Q824.4 38.1 824.8 38.6Q825.3 39 826.4 39Q827.2 39 827.6 38.7Q828.1 38.5 828.1 37.9Q828.1 37.6 827.9 37.3Q827.8 37.1 827.4 37Q826.9 36.8 826.1 36.7Q825 36.5 824.4 36.1Q823.8 35.8 823.5 35.4Q823.3 34.9 823.3 34.3Q823.3 33.2 824 32.6Q824.8 31.9 826.3 31.9Q827.3 31.9 828 32.2Q828.7 32.6 829 33.2Q829.3 33.8 829.4 34.4L828.1 34.5Q828 33.9 827.6 33.5Q827.2 33.1 826.2 33.1Q825.4 33.1 825 33.4Q824.6 33.7 824.6 34.2Q824.6 34.8 824.9 35.1Q825.3 35.4 826.4 35.6Q827.5 35.8 828.2 36.1Q828.9 36.4 829.1 36.8Q829.4 37.2 829.4 37.9Q829.4 39 828.5 39.6Q827.7 40.2 826.4 40.2Z"/><rect x="0" y="64" width="830" height="1" fill="#E5E5E5"/><rect x="0.0" y="92" width="577.0" height="6" rx="3" fill="#3178c6"/><rect x="580.0" y="92" width="99.9" height="6" rx="3" fill="#f1e05a"/><rect x="682.9" y="92" width="63.5" height="6" rx="3" fill="#F05138"/><rect x="749.4" y="92" width="27.5" height="6" rx="3" fill="#89e051"/><rect x="779.9" y="92" width="18.9" height="6" rx="3" fill="#663399"/><rect x="801.8" y="92" width="16.6" height="6" rx="3" fill="#dea584"/><rect x="821.4" y="92" width="2.0" height="6" rx="3" fill="#e34c26"/><rect x="825.9" y="92" width="2.0" height="6" rx="3" fill="#336790"/><g transform="translate(0.0 130) scale(0.9166666666666666)" fill="#3178c6"><path d="M1.125 0C.502 0 0 .502 0 1.125v21.75C0 23.498.502 24 1.125 24h21.75c.623 0 1.125-.502 1.125-1.125V1.125C24 .502 23.498 0 22.875 0zm17.363 9.75c.612 0 1.154.037 1.627.111a6.38 6.38 0 0 1 1.306.34v2.458a3.95 3.95 0 0 0-.643-.361 5.093 5.093 0 0 0-.717-.26 5.453 5.453 0 0 0-1.426-.2c-.3 0-.573.028-.819.086a2.1 2.1 0 0 0-.623.242c-.17.104-.3.229-.393.374a.888.888 0 0 0-.14.49c0 .196.053.373.156.529.104.156.252.304.443.444s.423.276.696.41c.273.135.582.274.926.416.47.197.892.407 1.266.628.374.222.695.473.963.753.268.279.472.598.614.957.142.359.214.776.214 1.253 0 .657-.125 1.21-.373 1.656a3.033 3.033 0 0 1-1.012 1.085 4.38 4.38 0 0 1-1.487.596c-.566.12-1.163.18-1.79.18a9.916 9.916 0 0 1-1.84-.164 5.544 5.544 0 0 1-1.512-.493v-2.63a5.033 5.033 0 0 0 3.237 1.2c.333 0 .624-.03.872-.09.249-.06.456-.144.623-.25.166-.108.29-.234.373-.38a1.023 1.023 0 0 0-.074-1.089 2.12 2.12 0 0 0-.537-.5 5.597 5.597 0 0 0-.807-.444 27.72 27.72 0 0 0-1.007-.436c-.918-.383-1.602-.852-2.053-1.405-.45-.553-.676-1.222-.676-2.005 0-.614.123-1.141.369-1.582.246-.441.58-.804 1.004-1.089a4.494 4.494 0 0 1 1.47-.629 7.536 7.536 0 0 1 1.77-.201zm-15.113.188h9.563v2.166H9.506v9.646H6.789v-9.646H3.375z"/></g><path fill="#0A0A0A" d="M37.7 146V136.2H34.2V134.6H42.9V136.2H39.4V146ZM43.9 148.4V147H44.9Q45.4 147 45.6 146.9Q45.8 146.8 45.9 146.4L46.2 145.7H45.6L42.6 137.5H44.4L46.7 144.2L48.9 137.5H50.7L47.3 147Q47.1 147.7 46.6 148.1Q46.1 148.4 45.2 148.4ZM51.7 148.4V137.5H53.3L53.4 138.8Q53.7 138 54.4 137.7Q55.1 137.3 56 137.3Q57.2 137.3 58 137.9Q58.8 138.5 59.2 139.5Q59.6 140.5 59.6 141.7Q59.6 142.9 59.2 144Q58.8 145 58 145.6Q57.2 146.2 56 146.2Q55.1 146.2 54.5 145.8Q53.8 145.5 53.4 144.8V148.4ZM55.6 144.7Q56.7 144.7 57.3 143.9Q57.8 143.2 57.8 141.7Q57.8 140.3 57.3 139.6Q56.7 138.8 55.6 138.8Q54.6 138.8 54 139.5Q53.4 140.3 53.4 141.7Q53.4 143.2 54 144Q54.6 144.7 55.6 144.7ZM64.7 146.2Q63.4 146.2 62.5 145.6Q61.6 145.1 61.1 144.1Q60.6 143.1 60.6 141.7Q60.6 140.4 61.1 139.4Q61.6 138.4 62.5 137.8Q63.4 137.3 64.6 137.3Q65.8 137.3 66.6 137.8Q67.5 138.4 68 139.4Q68.5 140.4 68.5 141.8V142.2H62.4Q62.4 143.5 63 144.1Q63.6 144.7 64.7 144.7Q65.4 144.7 65.9 144.4Q66.4 144 66.6 143.4L68.4 143.6Q68 144.8 67 145.5Q66.1 146.2 64.7 146.2ZM62.4 141H66.7Q66.6 139.8 66 139.3Q65.5 138.7 64.6 138.7Q63.7 138.7 63.1 139.3Q62.5 139.9 62.4 141ZM74.5 146.3Q73.1 146.3 72.1 145.8Q71.1 145.3 70.5 144.4Q70 143.5 69.9 142.3L71.6 142.2Q71.8 143.4 72.5 144Q73.2 144.7 74.5 144.7Q75.6 144.7 76.2 144.3Q76.8 143.9 76.8 143.1Q76.8 142.6 76.6 142.2Q76.4 141.8 75.7 141.5Q75.1 141.2 73.8 140.9Q72.5 140.6 71.6 140.2Q70.8 139.8 70.5 139.2Q70.1 138.6 70.1 137.7Q70.1 136.7 70.6 136Q71.1 135.2 71.9 134.8Q72.8 134.4 74 134.4Q75.3 134.4 76.3 134.9Q77.2 135.3 77.7 136.2Q78.3 137 78.4 138.1L76.6 138.2Q76.5 137.2 75.8 136.6Q75.2 136 74 136Q73 136 72.5 136.4Q71.9 136.9 71.9 137.6Q71.9 138.1 72.1 138.4Q72.4 138.8 73 139Q73.6 139.2 74.7 139.5Q76.1 139.8 77 140.3Q77.9 140.8 78.2 141.5Q78.6 142.1 78.6 143Q78.6 144 78.1 144.7Q77.6 145.5 76.6 145.9Q75.7 146.3 74.5 146.3ZM84.2 146.2Q83 146.2 82.1 145.6Q81.2 145.1 80.7 144.1Q80.2 143.1 80.2 141.7Q80.2 140.4 80.7 139.4Q81.2 138.4 82.1 137.8Q83 137.3 84.2 137.3Q85.8 137.3 86.8 138.1Q87.8 138.9 88 140.4L86.2 140.5Q86.1 139.6 85.6 139.2Q85 138.8 84.2 138.8Q83.1 138.8 82.5 139.6Q81.9 140.4 81.9 141.7Q81.9 143.2 82.5 143.9Q83.1 144.7 84.2 144.7Q85 144.7 85.6 144.3Q86.1 143.8 86.2 142.9L88 143Q87.8 144.4 86.8 145.3Q85.8 146.2 84.2 146.2ZM89.4 146V137.5H90.9L91 139.1Q91.2 138.3 91.7 137.9Q92.2 137.5 93 137.5H93.8V139H93Q92 139 91.6 139.5Q91.1 140 91.1 141V146ZM95.1 146V137.5H96.8V146ZM95.1 136.3V134.6H96.8V136.3ZM99.1 148.4V137.5H100.7L100.8 138.8Q101.1 138 101.8 137.7Q102.5 137.3 103.3 137.3Q104.6 137.3 105.4 137.9Q106.2 138.5 106.6 139.5Q107 140.5 107 141.7Q107 142.9 106.6 144Q106.2 145 105.4 145.6Q104.6 146.2 103.3 146.2Q102.5 146.2 101.8 145.8Q101.2 145.5 100.8 144.8V148.4ZM103 144.7Q104 144.7 104.6 143.9Q105.2 143.2 105.2 141.7Q105.2 140.3 104.6 139.6Q104 138.8 103 138.8Q102 138.8 101.4 139.5Q100.8 140.3 100.8 141.7Q100.8 143.2 101.4 144Q102 144.7 103 144.7ZM111.5 146Q110.3 146 109.7 145.4Q109.1 144.9 109.1 143.7V138.9H107.8V137.5H109.1V135.5H110.8V137.5H113.1V138.9H110.8V143.6Q110.8 144.2 111.1 144.4Q111.3 144.6 111.9 144.6H113.1V146Z"/><path fill="#6B6B6B" d="M126 146.2Q124.2 146.2 123.2 145Q122.2 143.8 122.2 141.5Q122.2 140.2 122.4 139Q122.6 137.9 123.1 137Q123.6 136.1 124.4 135.6Q125.2 135.1 126.4 135.1Q127.8 135.1 128.6 135.8Q129.4 136.5 129.7 137.6L128.3 137.8Q128.1 137.1 127.7 136.7Q127.3 136.4 126.4 136.4Q125.2 136.4 124.4 137.3Q123.7 138.2 123.5 140.1L123.5 140.2Q123.9 139.6 124.6 139.2Q125.3 138.8 126.2 138.8Q127.2 138.8 128 139.3Q128.8 139.7 129.3 140.5Q129.7 141.4 129.7 142.5Q129.7 143.6 129.2 144.5Q128.8 145.3 127.9 145.8Q127.1 146.2 126 146.2ZM126 145Q127 145 127.7 144.3Q128.4 143.6 128.4 142.5Q128.4 141.3 127.7 140.7Q127.1 140.1 126.1 140.1Q125.4 140.1 124.8 140.4Q124.2 140.6 123.9 141.2Q123.6 141.7 123.6 142.5Q123.6 143.6 124.2 144.3Q124.9 145 126 145ZM134.3 146.2Q132.9 146.2 132.1 145.6Q131.3 144.9 131 143.9L132.3 143.8Q132.5 144.4 133 144.7Q133.5 145 134.3 145Q135.5 145 136.2 144.1Q136.9 143.2 137 141.3V141.2Q136.6 141.9 135.9 142.2Q135.2 142.6 134.4 142.6Q133.3 142.6 132.6 142.1Q131.8 141.7 131.3 140.8Q130.8 140 130.8 138.9Q130.8 137.7 131.3 136.9Q131.8 136 132.6 135.6Q133.5 135.1 134.5 135.1Q135.9 135.1 136.7 135.7Q137.6 136.3 138 137.4Q138.4 138.5 138.4 140Q138.4 141.4 138.2 142.5Q138 143.6 137.5 144.5Q137 145.3 136.2 145.8Q135.4 146.2 134.3 146.2ZM134.5 141.3Q135.6 141.3 136.3 140.7Q137 140.1 137 138.9Q137 137.8 136.3 137.1Q135.7 136.4 134.5 136.4Q133.5 136.4 132.8 137.1Q132.2 137.8 132.2 138.9Q132.2 140 132.8 140.7Q133.5 141.3 134.5 141.3ZM139.7 146V144.3H141.4V146ZM146.5 146.2Q144.7 146.2 143.8 145.4Q142.8 144.6 142.8 143.3L144.1 143.2Q144.2 144.1 144.8 144.6Q145.5 145 146.5 145Q147.2 145 147.8 144.8Q148.4 144.6 148.7 144.2Q149.1 143.8 149.1 143Q149.1 142 148.4 141.5Q147.7 141 146.5 141H145.7V139.7H146.5Q147.5 139.7 148.1 139.3Q148.7 139 148.7 138.1Q148.7 136.4 146.6 136.4Q145.5 136.4 145 136.8Q144.5 137.2 144.4 137.9L143 137.8Q143.2 136.6 144.1 135.9Q145 135.1 146.6 135.1Q148.2 135.1 149.1 135.9Q150.1 136.7 150.1 138Q150.1 139.7 148.2 140.3Q149.3 140.6 149.9 141.3Q150.4 142 150.4 143Q150.4 144.1 149.9 144.8Q149.4 145.5 148.6 145.9Q147.7 146.2 146.5 146.2ZM154.1 140.5Q153.1 140.5 152.4 139.8Q151.8 139.1 151.8 137.9Q151.8 136.6 152.4 135.9Q153.1 135.2 154.1 135.2Q155.1 135.2 155.8 135.9Q156.4 136.6 156.4 137.9Q156.4 139.1 155.8 139.8Q155.1 140.5 154.1 140.5ZM152.9 146 160.2 135.3H161.4L154.1 146ZM154.1 139.6Q154.7 139.6 155 139.1Q155.3 138.7 155.3 137.9Q155.3 137.1 155 136.6Q154.7 136.2 154.1 136.2Q153.5 136.2 153.2 136.6Q152.9 137.1 152.9 137.9Q152.9 138.7 153.2 139.1Q153.5 139.6 154.1 139.6ZM160.2 146.1Q159.2 146.1 158.5 145.4Q157.9 144.8 157.9 143.5Q157.9 142.2 158.5 141.5Q159.2 140.8 160.2 140.8Q161.2 140.8 161.8 141.5Q162.5 142.2 162.5 143.5Q162.5 144.8 161.8 145.4Q161.2 146.1 160.2 146.1ZM160.2 145.2Q160.8 145.2 161.1 144.7Q161.4 144.3 161.4 143.5Q161.4 142.7 161.1 142.2Q160.8 141.8 160.2 141.8Q159.6 141.8 159.3 142.2Q159 142.7 159 143.5Q159 144.3 159.3 144.7Q159.6 145.2 160.2 145.2Z"/><g transform="translate(207.5 130) scale(0.9166666666666666)" fill="#f1e05a"><path d="M0 0h24v24H0V0zm22.034 18.276c-.175-1.095-.888-2.015-3.003-2.873-.736-.345-1.554-.585-1.797-1.14-.091-.33-.105-.51-.046-.705.15-.646.915-.84 1.515-.66.39.12.75.42.976.9 1.034-.676 1.034-.676 1.755-1.125-.27-.42-.404-.601-.586-.78-.63-.705-1.469-1.065-2.834-1.034l-.705.089c-.676.165-1.32.525-1.71 1.005-1.14 1.291-.811 3.541.569 4.471 1.365 1.02 3.361 1.244 3.616 2.205.24 1.17-.87 1.545-1.966 1.41-.811-.18-1.26-.586-1.755-1.336l-1.83 1.051c.21.48.45.689.81 1.109 1.74 1.756 6.09 1.666 6.871-1.004.029-.09.24-.705.074-1.65l.046.067zm-8.983-7.245h-2.248c0 1.938-.009 3.864-.009 5.805 0 1.232.063 2.363-.138 2.711-.33.689-1.18.601-1.566.48-.396-.196-.597-.466-.83-.855-.063-.105-.11-.196-.127-.196l-1.825 1.125c.305.63.75 1.172 1.324 1.517.855.51 2.004.675 3.207.405.783-.226 1.458-.691 1.811-1.411.51-.93.402-2.07.397-3.346.012-2.054 0-4.109 0-6.179l.004-.056z"/></g><path fill="#0A0A0A" d="M246.3 146.3Q245.1 146.3 244.3 145.7Q243.4 145.2 243 144.3Q242.5 143.4 242.5 142.2L244.2 142.1Q244.3 143.3 244.8 144Q245.3 144.7 246.3 144.7Q247.3 144.7 247.8 144Q248.3 143.3 248.3 142V134.6H250.1V142Q250.1 143.3 249.6 144.3Q249.1 145.2 248.3 145.7Q247.4 146.3 246.3 146.3ZM254.6 146.2Q253.3 146.2 252.5 145.6Q251.7 145 251.7 143.9Q251.7 142.8 252.4 142.2Q253.1 141.5 254.4 141.3L257.4 140.7Q257.4 138.7 255.5 138.7Q254.7 138.7 254.3 139.1Q253.8 139.5 253.6 140.2L251.9 140Q252.1 138.8 253.1 138Q254 137.3 255.5 137.3Q257.3 137.3 258.2 138.2Q259.1 139.1 259.1 140.8V144.1Q259.1 144.4 259.2 144.5Q259.3 144.7 259.5 144.7H259.8V146Q259.6 146 259.2 146Q258.5 146 258.1 145.8Q257.6 145.5 257.5 144.7V144.7Q257.2 145.4 256.4 145.8Q255.6 146.2 254.6 146.2ZM254.9 144.8Q256.1 144.8 256.7 144.2Q257.4 143.5 257.4 142.5V142L254.9 142.5Q254.1 142.6 253.8 142.9Q253.5 143.2 253.5 143.7Q253.5 144.3 253.9 144.6Q254.2 144.8 254.9 144.8ZM263 146 259.9 137.5H261.7L264 144.3L266.3 137.5H268.1L265 146ZM271.5 146.2Q270.2 146.2 269.4 145.6Q268.6 145 268.6 143.9Q268.6 142.8 269.3 142.2Q269.9 141.5 271.3 141.3L274.2 140.7Q274.2 138.7 272.4 138.7Q271.6 138.7 271.1 139.1Q270.7 139.5 270.5 140.2L268.7 140Q269 138.8 269.9 138Q270.9 137.3 272.4 137.3Q274.1 137.3 275 138.2Q275.9 139.1 275.9 140.8V144.1Q275.9 144.4 276 144.5Q276.1 144.7 276.4 144.7H276.7V146Q276.5 146 276.1 146Q275.3 146 274.9 145.8Q274.5 145.5 274.4 144.7V144.7Q274.1 145.4 273.3 145.8Q272.5 146.2 271.5 146.2ZM271.8 144.8Q272.9 144.8 273.6 144.2Q274.2 143.5 274.2 142.5V142L271.7 142.5Q271 142.6 270.7 142.9Q270.3 143.2 270.3 143.7Q270.3 144.3 270.7 144.6Q271.1 144.8 271.8 144.8ZM282.3 146.3Q280.9 146.3 279.9 145.8Q278.9 145.3 278.3 144.4Q277.8 143.5 277.7 142.3L279.4 142.2Q279.6 143.4 280.3 144Q281 144.7 282.3 144.7Q283.4 144.7 284 144.3Q284.6 143.9 284.6 143.1Q284.6 142.6 284.4 142.2Q284.2 141.8 283.5 141.5Q282.9 141.2 281.6 140.9Q280.3 140.6 279.4 140.2Q278.6 139.8 278.3 139.2Q277.9 138.6 277.9 137.7Q277.9 136.7 278.4 136Q278.8 135.2 279.7 134.8Q280.6 134.4 281.8 134.4Q283.1 134.4 284.1 134.9Q285 135.3 285.5 136.2Q286 137 286.2 138.1L284.4 138.2Q284.3 137.2 283.6 136.6Q283 136 281.8 136Q280.8 136 280.2 136.4Q279.7 136.9 279.7 137.6Q279.7 138.1 279.9 138.4Q280.1 138.8 280.7 139Q281.3 139.2 282.4 139.5Q283.9 139.8 284.8 140.3Q285.6 140.8 286 141.5Q286.4 142.1 286.4 143Q286.4 144 285.9 144.7Q285.4 145.5 284.4 145.9Q283.5 146.3 282.3 146.3ZM292 146.2Q290.8 146.2 289.9 145.6Q289 145.1 288.5 144.1Q288 143.1 288 141.7Q288 140.4 288.5 139.4Q289 138.4 289.9 137.8Q290.8 137.3 292 137.3Q293.5 137.3 294.6 138.1Q295.6 138.9 295.8 140.4L294 140.5Q293.9 139.6 293.4 139.2Q292.8 138.8 292 138.8Q290.9 138.8 290.3 139.6Q289.7 140.4 289.7 141.7Q289.7 143.2 290.3 143.9Q290.9 144.7 292 144.7Q292.8 144.7 293.4 144.3Q293.9 143.8 294 142.9L295.8 143Q295.6 144.4 294.6 145.3Q293.6 146.2 292 146.2ZM297.2 146V137.5H298.7L298.8 139.1Q299 138.3 299.5 137.9Q300 137.5 300.8 137.5H301.6V139H300.8Q299.8 139 299.4 139.5Q298.9 140 298.9 141V146ZM302.9 146V137.5H304.6V146ZM302.8 136.3V134.6H304.6V136.3ZM306.9 148.4V137.5H308.5L308.5 138.8Q308.9 138 309.6 137.7Q310.3 137.3 311.1 137.3Q312.4 137.3 313.2 137.9Q314 138.5 314.4 139.5Q314.8 140.5 314.8 141.7Q314.8 142.9 314.4 144Q314 145 313.2 145.6Q312.4 146.2 311.1 146.2Q310.3 146.2 309.6 145.8Q309 145.5 308.6 144.8V148.4ZM310.8 144.7Q311.8 144.7 312.4 143.9Q313 143.2 313 141.7Q313 140.3 312.4 139.6Q311.8 138.8 310.8 138.8Q309.8 138.8 309.2 139.5Q308.6 140.3 308.6 141.7Q308.6 143.2 309.2 144Q309.8 144.7 310.8 144.7ZM319.3 146Q318.1 146 317.5 145.4Q316.9 144.9 316.9 143.7V138.9H315.6V137.5H316.9V135.5H318.6V137.5H320.9V138.9H318.6V143.6Q318.6 144.2 318.9 144.4Q319.1 144.6 319.6 144.6H320.9V146Z"/><path fill="#6B6B6B" d="M332 146V138.1H329.8V137H330.7Q331.6 137 331.9 136.6Q332.3 136.3 332.3 135.3H333.3V146ZM335.6 146Q335.6 144.9 336 144Q336.4 143.1 337.2 142.2Q338.1 141.4 339.7 140.6Q340.5 140.2 340.9 139.9Q341.4 139.5 341.6 139.1Q341.8 138.8 341.8 138.2Q341.8 137.4 341.2 136.9Q340.7 136.4 339.7 136.4Q338.5 136.4 337.9 137Q337.2 137.5 337.1 138.6L335.7 138.5Q335.9 137 336.9 136Q337.9 135.1 339.7 135.1Q341.3 135.1 342.2 136Q343.1 136.8 343.1 138.2Q343.1 139 342.9 139.6Q342.6 140.2 342 140.7Q341.3 141.2 340.2 141.8Q338.8 142.6 338 143.3Q337.3 144.1 337.2 144.7H343.1V146ZM344.6 146V144.3H346.3V146ZM351.4 146.2Q349.6 146.2 348.7 145.4Q347.7 144.6 347.6 143.3L349 143.2Q349.1 144.1 349.7 144.6Q350.4 145 351.4 145Q352.1 145 352.7 144.8Q353.3 144.6 353.6 144.2Q354 143.8 354 143Q354 142 353.3 141.5Q352.6 141 351.4 141H350.6V139.7H351.4Q352.4 139.7 353 139.3Q353.6 139 353.6 138.1Q353.6 136.4 351.5 136.4Q350.4 136.4 349.9 136.8Q349.4 137.2 349.3 137.9L347.9 137.8Q348.1 136.6 349 135.9Q349.9 135.1 351.5 135.1Q353.1 135.1 354 135.9Q355 136.7 355 138Q355 139.7 353.1 140.3Q354.2 140.6 354.7 141.3Q355.3 142 355.3 143Q355.3 144.1 354.8 144.8Q354.3 145.5 353.5 145.9Q352.6 146.2 351.4 146.2ZM359 140.5Q358 140.5 357.3 139.8Q356.7 139.1 356.7 137.9Q356.7 136.6 357.3 135.9Q358 135.2 359 135.2Q360 135.2 360.7 135.9Q361.3 136.6 361.3 137.9Q361.3 139.1 360.7 139.8Q360 140.5 359 140.5ZM357.8 146 365.1 135.3H366.3L359 146ZM359 139.6Q359.6 139.6 359.9 139.1Q360.2 138.7 360.2 137.9Q360.2 137.1 359.9 136.6Q359.6 136.2 359 136.2Q358.4 136.2 358.1 136.6Q357.8 137.1 357.8 137.9Q357.8 138.7 358.1 139.1Q358.4 139.6 359 139.6ZM365.1 146.1Q364.1 146.1 363.4 145.4Q362.8 144.8 362.8 143.5Q362.8 142.2 363.4 141.5Q364.1 140.8 365.1 140.8Q366.1 140.8 366.7 141.5Q367.4 142.2 367.4 143.5Q367.4 144.8 366.7 145.4Q366.1 146.1 365.1 146.1ZM365.1 145.2Q365.7 145.2 366 144.7Q366.3 144.3 366.3 143.5Q366.3 142.7 366 142.2Q365.7 141.8 365.1 141.8Q364.5 141.8 364.2 142.2Q363.8 142.7 363.8 143.5Q363.8 144.3 364.2 144.7Q364.5 145.2 365.1 145.2Z"/><g transform="translate(415.0 130) scale(0.9166666666666666)" fill="#F05138"><path d="M7.508 0c-.287 0-.573 0-.86.002-.241.002-.483.003-.724.01-.132.003-.263.009-.395.015A9.154 9.154 0 0 0 4.348.15 5.492 5.492 0 0 0 2.85.645 5.04 5.04 0 0 0 .645 2.848c-.245.48-.4.972-.495 1.5-.093.52-.122 1.05-.136 1.576a35.2 35.2 0 0 0-.012.724C0 6.935 0 7.221 0 7.508v8.984c0 .287 0 .575.002.862.002.24.005.481.012.722.014.526.043 1.057.136 1.576.095.528.25 1.02.495 1.5a5.03 5.03 0 0 0 2.205 2.203c.48.244.97.4 1.498.495.52.093 1.05.124 1.576.138.241.007.483.009.724.01.287.002.573.002.86.002h8.984c.287 0 .573 0 .86-.002.241-.001.483-.003.724-.01a10.523 10.523 0 0 0 1.578-.138 5.322 5.322 0 0 0 1.498-.495 5.035 5.035 0 0 0 2.203-2.203c.245-.48.4-.972.495-1.5.093-.52.124-1.05.138-1.576.007-.241.009-.481.01-.722.002-.287.002-.575.002-.862V7.508c0-.287 0-.573-.002-.86a33.662 33.662 0 0 0-.01-.724 10.5 10.5 0 0 0-.138-1.576 5.328 5.328 0 0 0-.495-1.5A5.039 5.039 0 0 0 21.152.645 5.32 5.32 0 0 0 19.654.15a10.493 10.493 0 0 0-1.578-.138 34.98 34.98 0 0 0-.722-.01C17.067 0 16.779 0 16.492 0H7.508zm6.035 3.41c4.114 2.47 6.545 7.162 5.549 11.131-.024.093-.05.181-.076.272l.002.001c2.062 2.538 1.5 5.258 1.236 4.745-1.072-2.086-3.066-1.568-4.088-1.043a6.803 6.803 0 0 1-.281.158l-.02.012-.002.002c-2.115 1.123-4.957 1.205-7.812-.022a12.568 12.568 0 0 1-5.64-4.838c.649.48 1.35.902 2.097 1.252 3.019 1.414 6.051 1.311 8.197-.002C9.651 12.73 7.101 9.67 5.146 7.191a10.628 10.628 0 0 1-1.005-1.384c2.34 2.142 6.038 4.83 7.365 5.576C8.69 8.408 6.208 4.743 6.324 4.86c4.436 4.47 8.528 6.996 8.528 6.996.154.085.27.154.36.213.085-.215.16-.437.224-.668.708-2.588-.09-5.548-1.893-7.992z"/></g><path fill="#0A0A0A" d="M454.5 146.3Q453.1 146.3 452.1 145.8Q451.1 145.3 450.5 144.4Q450 143.5 449.9 142.3L451.6 142.2Q451.8 143.4 452.5 144Q453.2 144.7 454.5 144.7Q455.6 144.7 456.2 144.3Q456.8 143.9 456.8 143.1Q456.8 142.6 456.6 142.2Q456.4 141.8 455.7 141.5Q455.1 141.2 453.8 140.9Q452.5 140.6 451.6 140.2Q450.8 139.8 450.5 139.2Q450.1 138.6 450.1 137.7Q450.1 136.7 450.6 136Q451 135.2 451.9 134.8Q452.8 134.4 454 134.4Q455.3 134.4 456.3 134.9Q457.2 135.3 457.7 136.2Q458.2 137 458.4 138.1L456.6 138.2Q456.5 137.2 455.8 136.6Q455.2 136 454 136Q453 136 452.4 136.4Q451.9 136.9 451.9 137.6Q451.9 138.1 452.1 138.4Q452.3 138.8 452.9 139Q453.5 139.2 454.6 139.5Q456.1 139.8 457 140.3Q457.8 140.8 458.2 141.5Q458.6 142.1 458.6 143Q458.6 144 458.1 144.7Q457.6 145.5 456.6 145.9Q455.7 146.3 454.5 146.3ZM462 146 459.4 137.5H461.2L463 144.1L464.9 137.5H466.5L468.3 144.1L470.2 137.5H471.9L469.4 146H467.4L465.7 139.9L463.9 146ZM473.2 146V137.5H474.9V146ZM473.1 136.3V134.6H474.9V136.3ZM477.3 146V138.9H476.1V137.5H477.3V136.9Q477.3 135.9 477.9 135.3Q478.5 134.6 479.7 134.6H481.2V136H479.9Q479 136 479 137V137.5H481.1V138.9H479V146ZM485.5 146Q484.3 146 483.7 145.4Q483.2 144.9 483.2 143.7V138.9H481.9V137.5H483.2V135.5H484.9V137.5H487.1V138.9H484.9V143.6Q484.9 144.2 485.1 144.4Q485.4 144.6 485.9 144.6H487.1V146Z"/><path fill="#6B6B6B" d="M498.1 146Q498.1 144.3 498.6 142.7Q499 141.1 499.9 139.5Q500.7 138 501.9 136.6H495.8V135.3H503.3V136.5Q502 138.1 501.1 139.5Q500.3 141 499.9 142.6Q499.5 144.2 499.5 146ZM502.4 146V144.3H504.1V146ZM508.7 146.2Q507.4 146.2 506.6 145.6Q505.7 144.9 505.4 143.9L506.8 143.8Q507 144.4 507.4 144.7Q507.9 145 508.7 145Q509.9 145 510.6 144.1Q511.3 143.2 511.5 141.3V141.2Q511 141.9 510.3 142.2Q509.7 142.6 508.8 142.6Q507.8 142.6 507 142.1Q506.2 141.7 505.7 140.8Q505.3 140 505.3 138.9Q505.3 137.7 505.8 136.9Q506.2 136 507.1 135.6Q507.9 135.1 509 135.1Q510.3 135.1 511.2 135.7Q512 136.3 512.4 137.4Q512.8 138.5 512.8 140Q512.8 141.4 512.6 142.5Q512.4 143.6 511.9 144.5Q511.5 145.3 510.7 145.8Q509.9 146.2 508.7 146.2ZM508.9 141.3Q510 141.3 510.7 140.7Q511.4 140.1 511.4 138.9Q511.4 137.8 510.8 137.1Q510.1 136.4 509 136.4Q507.9 136.4 507.3 137.1Q506.6 137.8 506.6 138.9Q506.6 140 507.3 140.7Q507.9 141.3 508.9 141.3ZM516.5 140.5Q515.5 140.5 514.8 139.8Q514.2 139.1 514.2 137.9Q514.2 136.6 514.8 135.9Q515.5 135.2 516.5 135.2Q517.5 135.2 518.1 135.9Q518.8 136.6 518.8 137.9Q518.8 139.1 518.1 139.8Q517.5 140.5 516.5 140.5ZM515.2 146 522.6 135.3H523.8L516.4 146ZM516.5 139.6Q517.1 139.6 517.4 139.1Q517.7 138.7 517.7 137.9Q517.7 137.1 517.4 136.6Q517.1 136.2 516.5 136.2Q515.9 136.2 515.6 136.6Q515.2 137.1 515.2 137.9Q515.2 138.7 515.6 139.1Q515.9 139.6 516.5 139.6ZM522.6 146.1Q521.6 146.1 520.9 145.4Q520.3 144.8 520.3 143.5Q520.3 142.2 520.9 141.5Q521.6 140.8 522.6 140.8Q523.6 140.8 524.2 141.5Q524.9 142.2 524.9 143.5Q524.9 144.8 524.2 145.4Q523.6 146.1 522.6 146.1ZM522.6 145.2Q523.2 145.2 523.5 144.7Q523.8 144.3 523.8 143.5Q523.8 142.7 523.5 142.2Q523.2 141.8 522.6 141.8Q522 141.8 521.7 142.2Q521.3 142.7 521.3 143.5Q521.3 144.3 521.7 144.7Q522 145.2 522.6 145.2Z"/><g transform="translate(622.5 130) scale(0.9166666666666666)" fill="#89e051"><path d="M21.038,4.9l-7.577-4.498C13.009,0.134,12.505,0,12,0c-0.505,0-1.009,0.134-1.462,0.403L2.961,4.9 C2.057,5.437,1.5,6.429,1.5,7.503v8.995c0,1.073,0.557,2.066,1.462,2.603l7.577,4.497C10.991,23.866,11.495,24,12,24 c0.505,0,1.009-0.134,1.461-0.402l7.577-4.497c0.904-0.537,1.462-1.529,1.462-2.603V7.503C22.5,6.429,21.943,5.437,21.038,4.9z M15.17,18.946l0.013,0.646c0.001,0.078-0.05,0.167-0.111,0.198l-0.383,0.22c-0.061,0.031-0.111-0.007-0.112-0.085L14.57,19.29 c-0.328,0.136-0.66,0.169-0.872,0.084c-0.04-0.016-0.057-0.075-0.041-0.142l0.139-0.584c0.011-0.046,0.036-0.092,0.069-0.121 c0.012-0.011,0.024-0.02,0.036-0.026c0.022-0.011,0.043-0.014,0.062-0.006c0.229,0.077,0.521,0.041,0.802-0.101 c0.357-0.181,0.596-0.545,0.592-0.907c-0.003-0.328-0.181-0.465-0.613-0.468c-0.55,0.001-1.064-0.107-1.072-0.917 c-0.007-0.667,0.34-1.361,0.889-1.8l-0.007-0.652c-0.001-0.08,0.048-0.168,0.111-0.2l0.37-0.236 c0.061-0.031,0.111,0.007,0.112,0.087l0.006,0.653c0.273-0.109,0.511-0.138,0.726-0.088c0.047,0.012,0.067,0.076,0.048,0.151 l-0.144,0.578c-0.011,0.044-0.036,0.088-0.065,0.116c-0.012,0.012-0.025,0.021-0.038,0.028c-0.019,0.01-0.038,0.013-0.057,0.009 c-0.098-0.022-0.332-0.073-0.699,0.113c-0.385,0.195-0.52,0.53-0.517,0.778c0.003,0.297,0.155,0.387,0.681,0.396 c0.7,0.012,1.003,0.318,1.01,1.023C16.105,17.747,15.736,18.491,15.17,18.946z M19.143,17.859c0,0.06-0.008,0.116-0.058,0.145 l-1.916,1.164c-0.05,0.029-0.09,0.004-0.09-0.056v-0.494c0-0.06,0.037-0.093,0.087-0.122l1.887-1.129 c0.05-0.029,0.09-0.004,0.09,0.056V17.859z M20.459,6.797l-7.168,4.427c-0.894,0.523-1.553,1.109-1.553,2.187v8.833 c0,0.645,0.26,1.063,0.66,1.184c-0.131,0.023-0.264,0.039-0.398,0.039c-0.42,0-0.833-0.114-1.197-0.33L3.226,18.64 c-0.741-0.44-1.201-1.261-1.201-2.142V7.503c0-0.881,0.46-1.702,1.201-2.142l7.577-4.498c0.363-0.216,0.777-0.33,1.197-0.33 c0.419,0,0.833,0.114,1.197,0.33l7.577,4.498c0.624,0.371,1.046,1.013,1.164,1.732C21.686,6.557,21.12,6.411,20.459,6.797z"/></g><path fill="#0A0A0A" d="M662 146.3Q660.6 146.3 659.6 145.8Q658.6 145.3 658 144.4Q657.5 143.5 657.4 142.3L659.1 142.2Q659.3 143.4 660 144Q660.7 144.7 662 144.7Q663.1 144.7 663.7 144.3Q664.3 143.9 664.3 143.1Q664.3 142.6 664.1 142.2Q663.9 141.8 663.2 141.5Q662.6 141.2 661.3 140.9Q660 140.6 659.1 140.2Q658.3 139.8 658 139.2Q657.6 138.6 657.6 137.7Q657.6 136.7 658.1 136Q658.5 135.2 659.4 134.8Q660.3 134.4 661.5 134.4Q662.8 134.4 663.8 134.9Q664.7 135.3 665.2 136.2Q665.7 137 665.9 138.1L664.1 138.2Q664 137.2 663.3 136.6Q662.7 136 661.5 136Q660.5 136 659.9 136.4Q659.4 136.9 659.4 137.6Q659.4 138.1 659.6 138.4Q659.8 138.8 660.4 139Q661 139.2 662.1 139.5Q663.6 139.8 664.5 140.3Q665.3 140.8 665.7 141.5Q666.1 142.1 666.1 143Q666.1 144 665.6 144.7Q665.1 145.5 664.1 145.9Q663.2 146.3 662 146.3ZM668.2 146V134.6H669.9V138.7Q670.2 138 670.9 137.6Q671.5 137.3 672.4 137.3Q673.7 137.3 674.5 138.2Q675.2 139.1 675.2 140.5V146H673.5V141Q673.5 138.7 671.9 138.7Q671 138.7 670.4 139.3Q669.9 139.9 669.9 141V146ZM680.8 146.2Q679.5 146.2 678.6 145.6Q677.7 145.1 677.2 144.1Q676.7 143.1 676.7 141.7Q676.7 140.4 677.2 139.4Q677.7 138.4 678.6 137.8Q679.5 137.3 680.7 137.3Q681.9 137.3 682.8 137.8Q683.6 138.4 684.1 139.4Q684.6 140.4 684.6 141.8V142.2H678.5Q678.6 143.5 679.2 144.1Q679.8 144.7 680.8 144.7Q681.5 144.7 682 144.4Q682.5 144 682.7 143.4L684.5 143.6Q684.1 144.8 683.2 145.5Q682.2 146.2 680.8 146.2ZM678.5 141H682.8Q682.7 139.8 682.2 139.3Q681.6 138.7 680.7 138.7Q679.8 138.7 679.2 139.3Q678.6 139.9 678.5 141ZM688.1 146Q687.3 146 686.7 145.6Q686.2 145.1 686.2 144.2V134.6H687.9V144Q687.9 144.6 688.5 144.6H689.2V146ZM692.3 146Q691.4 146 690.9 145.6Q690.4 145.1 690.4 144.2V134.6H692.1V144Q692.1 144.6 692.7 144.6H693.4V146Z"/><path fill="#6B6B6B" d="M706.1 146.2Q704.3 146.2 703.4 145.4Q702.4 144.6 702.3 143.3L703.7 143.2Q703.8 144.1 704.4 144.6Q705.1 145 706.1 145Q706.8 145 707.4 144.8Q708 144.6 708.3 144.2Q708.7 143.8 708.7 143Q708.7 142 708 141.5Q707.3 141 706.1 141H705.3V139.7H706.1Q707.1 139.7 707.7 139.3Q708.3 139 708.3 138.1Q708.3 136.4 706.2 136.4Q705.1 136.4 704.6 136.8Q704.1 137.2 704 137.9L702.6 137.8Q702.8 136.6 703.7 135.9Q704.6 135.1 706.2 135.1Q707.8 135.1 708.7 135.9Q709.7 136.7 709.7 138Q709.7 139.7 707.8 140.3Q708.8 140.6 709.4 141.3Q710 142 710 143Q710 144.1 709.5 144.8Q709 145.5 708.1 145.9Q707.3 146.2 706.1 146.2ZM711.4 146V144.3H713.1V146ZM718.2 146.2Q716.4 146.2 715.4 145Q714.4 143.8 714.4 141.5Q714.4 140.2 714.6 139Q714.8 137.9 715.3 137Q715.8 136.1 716.6 135.6Q717.4 135.1 718.6 135.1Q720 135.1 720.8 135.8Q721.6 136.5 721.9 137.6L720.5 137.8Q720.4 137.1 719.9 136.7Q719.5 136.4 718.6 136.4Q717.4 136.4 716.7 137.3Q715.9 138.2 715.8 140.1L715.7 140.2Q716.1 139.6 716.8 139.2Q717.5 138.8 718.4 138.8Q719.5 138.8 720.3 139.3Q721.1 139.7 721.5 140.5Q721.9 141.4 721.9 142.5Q721.9 143.6 721.5 144.5Q721 145.3 720.1 145.8Q719.3 146.2 718.2 146.2ZM718.2 145Q719.3 145 719.9 144.3Q720.6 143.6 720.6 142.5Q720.6 141.3 720 140.7Q719.3 140.1 718.3 140.1Q717.6 140.1 717 140.4Q716.5 140.6 716.1 141.2Q715.8 141.7 715.8 142.5Q715.8 143.6 716.5 144.3Q717.1 145 718.2 145ZM725.4 140.5Q724.4 140.5 723.8 139.8Q723.1 139.1 723.1 137.9Q723.1 136.6 723.8 135.9Q724.4 135.2 725.4 135.2Q726.5 135.2 727.1 135.9Q727.7 136.6 727.7 137.9Q727.7 139.1 727.1 139.8Q726.5 140.5 725.4 140.5ZM724.2 146 731.6 135.3H732.8L725.4 146ZM725.4 139.6Q726.1 139.6 726.4 139.1Q726.7 138.7 726.7 137.9Q726.7 137.1 726.4 136.6Q726.1 136.2 725.4 136.2Q724.8 136.2 724.5 136.6Q724.2 137.1 724.2 137.9Q724.2 138.7 724.5 139.1Q724.8 139.6 725.4 139.6ZM731.5 146.1Q730.5 146.1 729.9 145.4Q729.2 144.8 729.2 143.5Q729.2 142.2 729.9 141.5Q730.5 140.8 731.5 140.8Q732.5 140.8 733.2 141.5Q733.8 142.2 733.8 143.5Q733.8 144.8 733.2 145.4Q732.5 146.1 731.5 146.1ZM731.5 145.2Q732.1 145.2 732.5 144.7Q732.8 144.3 732.8 143.5Q732.8 142.7 732.5 142.2Q732.1 141.8 731.5 141.8Q730.9 141.8 730.6 142.2Q730.3 142.7 730.3 143.5Q730.3 144.3 730.6 144.7Q730.9 145.2 731.5 145.2Z"/><g transform="translate(0.0 186) scale(0.9166666666666666)" fill="#663399"><path d="M0 0v20.16A3.84 3.84 0 0 0 3.84 24h16.32A3.84 3.84 0 0 0 24 20.16V3.84A3.84 3.84 0 0 0 20.16 0Zm14.256 13.08c1.56 0 2.28 1.08 2.304 2.64h-1.608c.024-.288-.048-.6-.144-.84-.096-.192-.288-.264-.552-.264-.456 0-.696.264-.696.84-.024.576.288.888.768 1.08.72.288 1.608.744 1.92 1.296q.432.648.432 1.656c0 1.608-.912 2.592-2.496 2.592-1.656 0-2.4-1.032-2.424-2.688h1.68c0 .792.264 1.176.792 1.176.264 0 .456-.072.552-.24.192-.312.24-1.176-.048-1.512-.312-.408-.912-.6-1.32-.816q-.828-.396-1.224-.936c-.24-.36-.36-.888-.36-1.536 0-1.44.936-2.472 2.424-2.448m5.4 0c1.584 0 2.304 1.08 2.328 2.64h-1.608c0-.288-.048-.6-.168-.84-.096-.192-.264-.264-.528-.264-.48 0-.72.264-.72.84s.288.888.792 1.08c.696.288 1.608.744 1.92 1.296.264.432.408.984.408 1.656.024 1.608-.888 2.592-2.472 2.592-1.68 0-2.424-1.056-2.448-2.688h1.68c0 .744.264 1.176.792 1.176.264 0 .456-.072.552-.24.216-.312.264-1.176-.048-1.512-.288-.408-.888-.6-1.32-.816-.552-.264-.96-.576-1.2-.936s-.36-.888-.36-1.536c-.024-1.44.912-2.472 2.4-2.448m-11.031.018c.711-.006 1.419.198 1.839.63.432.432.672 1.128.648 1.992H9.336c.024-.456-.096-.792-.432-.96-.312-.144-.768-.048-.888.24-.12.264-.192.576-.168.864v3.504c0 .744.264 1.128.768 1.128a.65.65 0 0 0 .552-.264c.168-.24.192-.552.168-.84h1.776c.096 1.632-.984 2.712-2.568 2.688-1.536 0-2.496-.864-2.472-2.472v-4.032c0-.816.24-1.44.696-1.848.432-.408 1.146-.624 1.857-.63"/></g><path fill="#0A0A0A" d="M39.9 202.3Q38.4 202.3 37.2 201.5Q36 200.8 35.4 199.5Q34.7 198.2 34.7 196.3Q34.7 194.5 35.4 193.2Q36 191.8 37.2 191.1Q38.3 190.4 39.9 190.4Q42 190.4 43.2 191.4Q44.4 192.5 44.7 194.4L42.9 194.5Q42.7 193.3 41.9 192.6Q41.2 192 39.9 192Q38.9 192 38.1 192.5Q37.3 193 36.9 194Q36.5 195 36.5 196.3Q36.5 197.7 36.9 198.7Q37.3 199.6 38.1 200.2Q38.9 200.7 39.9 200.7Q41.3 200.7 42 199.9Q42.8 199.2 43 197.9L44.8 198Q44.5 200 43.2 201.1Q42 202.3 39.9 202.3ZM50.7 202.3Q49.4 202.3 48.4 201.8Q47.4 201.3 46.8 200.4Q46.2 199.5 46.1 198.3L47.9 198.2Q48 199.4 48.8 200Q49.5 200.7 50.8 200.7Q51.9 200.7 52.5 200.3Q53.1 199.9 53.1 199.1Q53.1 198.6 52.8 198.2Q52.6 197.8 52 197.5Q51.3 197.2 50.1 196.9Q48.7 196.6 47.9 196.2Q47.1 195.8 46.7 195.2Q46.4 194.6 46.4 193.7Q46.4 192.7 46.8 192Q47.3 191.2 48.2 190.8Q49.1 190.4 50.3 190.4Q51.6 190.4 52.5 190.9Q53.4 191.3 54 192.2Q54.5 193 54.6 194.1L52.8 194.2Q52.7 193.2 52.1 192.6Q51.4 192 50.3 192Q49.3 192 48.7 192.4Q48.1 192.9 48.1 193.6Q48.1 194.1 48.4 194.4Q48.6 194.8 49.2 195Q49.8 195.2 50.9 195.5Q52.4 195.8 53.2 196.3Q54.1 196.8 54.5 197.5Q54.8 198.1 54.8 199Q54.8 200 54.3 200.7Q53.8 201.5 52.9 201.9Q52 202.3 50.7 202.3ZM61 202.3Q59.7 202.3 58.7 201.8Q57.7 201.3 57.1 200.4Q56.5 199.5 56.4 198.3L58.2 198.2Q58.4 199.4 59.1 200Q59.8 200.7 61.1 200.7Q62.2 200.7 62.8 200.3Q63.4 199.9 63.4 199.1Q63.4 198.6 63.1 198.2Q62.9 197.8 62.3 197.5Q61.6 197.2 60.4 196.9Q59 196.6 58.2 196.2Q57.4 195.8 57 195.2Q56.7 194.6 56.7 193.7Q56.7 192.7 57.1 192Q57.6 191.2 58.5 190.8Q59.4 190.4 60.6 190.4Q61.9 190.4 62.8 190.9Q63.7 191.3 64.3 192.2Q64.8 193 64.9 194.1L63.2 194.2Q63 193.2 62.4 192.6Q61.7 192 60.6 192Q59.6 192 59 192.4Q58.4 192.9 58.4 193.6Q58.4 194.1 58.7 194.4Q58.9 194.8 59.5 195Q60.1 195.2 61.2 195.5Q62.7 195.8 63.5 196.3Q64.4 196.8 64.8 197.5Q65.2 198.1 65.2 199Q65.2 200 64.6 200.7Q64.1 201.5 63.2 201.9Q62.3 202.3 61 202.3Z"/><path fill="#6B6B6B" d="M74.8 202Q74.8 200.9 75.1 200Q75.5 199.1 76.4 198.2Q77.2 197.4 78.8 196.6Q79.6 196.2 80 195.9Q80.5 195.5 80.7 195.1Q80.9 194.8 80.9 194.2Q80.9 193.4 80.4 192.9Q79.8 192.4 78.8 192.4Q77.6 192.4 77 193Q76.3 193.5 76.2 194.6L74.8 194.5Q75 193 76 192Q77 191.1 78.8 191.1Q80.4 191.1 81.3 192Q82.2 192.8 82.2 194.2Q82.2 195 82 195.6Q81.7 196.2 81.1 196.7Q80.4 197.2 79.3 197.8Q77.9 198.6 77.1 199.3Q76.4 200.1 76.3 200.7H82.2V202ZM83.7 202V200.3H85.4V202ZM90.5 202.2Q88.7 202.2 87.7 201Q86.8 199.8 86.8 197.5Q86.8 196.2 87 195Q87.2 193.9 87.7 193Q88.2 192.1 89 191.6Q89.8 191.1 91 191.1Q92.4 191.1 93.2 191.8Q93.9 192.5 94.3 193.6L92.9 193.8Q92.7 193.1 92.3 192.7Q91.8 192.4 91 192.4Q89.8 192.4 89 193.3Q88.3 194.2 88.1 196.1L88.1 196.2Q88.5 195.6 89.2 195.2Q89.9 194.8 90.8 194.8Q91.8 194.8 92.6 195.3Q93.4 195.7 93.9 196.5Q94.3 197.4 94.3 198.5Q94.3 199.6 93.8 200.5Q93.3 201.3 92.5 201.8Q91.6 202.2 90.5 202.2ZM90.6 201Q91.6 201 92.3 200.3Q93 199.6 93 198.5Q93 197.3 92.3 196.7Q91.7 196.1 90.7 196.1Q90 196.1 89.4 196.4Q88.8 196.6 88.5 197.2Q88.2 197.7 88.2 198.5Q88.2 199.6 88.8 200.3Q89.5 201 90.6 201ZM97.8 196.5Q96.8 196.5 96.1 195.8Q95.5 195.1 95.5 193.9Q95.5 192.6 96.1 191.9Q96.8 191.2 97.8 191.2Q98.8 191.2 99.5 191.9Q100.1 192.6 100.1 193.9Q100.1 195.1 99.5 195.8Q98.8 196.5 97.8 196.5ZM96.6 202 103.9 191.3H105.1L97.8 202ZM97.8 195.6Q98.4 195.6 98.7 195.1Q99 194.7 99 193.9Q99 193.1 98.7 192.6Q98.4 192.2 97.8 192.2Q97.2 192.2 96.9 192.6Q96.6 193.1 96.6 193.9Q96.6 194.7 96.9 195.1Q97.2 195.6 97.8 195.6ZM103.9 202.1Q102.9 202.1 102.2 201.4Q101.6 200.8 101.6 199.5Q101.6 198.2 102.2 197.5Q102.9 196.8 103.9 196.8Q104.9 196.8 105.6 197.5Q106.2 198.2 106.2 199.5Q106.2 200.8 105.6 201.4Q104.9 202.1 103.9 202.1ZM103.9 201.2Q104.5 201.2 104.8 200.7Q105.1 200.3 105.1 199.5Q105.1 198.7 104.8 198.2Q104.5 197.8 103.9 197.8Q103.3 197.8 103 198.2Q102.7 198.7 102.7 199.5Q102.7 200.3 103 200.7Q103.3 201.2 103.9 201.2Z"/><g transform="translate(207.5 186) scale(0.9166666666666666)" fill="#dea584"><path d="M23.8346 11.7033l-1.0073-.6236a13.7268 13.7268 0 00-.0283-.2936l.8656-.8069a.3483.3483 0 00-.1154-.578l-1.1066-.414a8.4958 8.4958 0 00-.087-.2856l.6904-.9587a.3462.3462 0 00-.2257-.5446l-1.1663-.1894a9.3574 9.3574 0 00-.1407-.2622l.49-1.0761a.3437.3437 0 00-.0274-.3361.3486.3486 0 00-.3006-.154l-1.1845.0416a6.7444 6.7444 0 00-.1873-.2268l.2723-1.153a.3472.3472 0 00-.417-.4172l-1.1532.2724a14.0183 14.0183 0 00-.2278-.1873l.0415-1.1845a.3442.3442 0 00-.49-.328l-1.076.491c-.0872-.0476-.1742-.0952-.2623-.1407l-.1903-1.1673A.3483.3483 0 0016.256.955l-.9597.6905a8.4867 8.4867 0 00-.2855-.086l-.414-1.1066a.3483.3483 0 00-.5781-.1154l-.8069.8666a9.2936 9.2936 0 00-.2936-.0284L12.2946.1683a.3462.3462 0 00-.5892 0l-.6236 1.0073a13.7383 13.7383 0 00-.2936.0284L9.9803.3374a.3462.3462 0 00-.578.1154l-.4141 1.1065c-.0962.0274-.1903.0567-.2855.086L7.744.955a.3483.3483 0 00-.5447.2258L7.009 2.348a9.3574 9.3574 0 00-.2622.1407l-1.0762-.491a.3462.3462 0 00-.49.328l.0416 1.1845a7.9826 7.9826 0 00-.2278.1873L3.8413 3.425a.3472.3472 0 00-.4171.4171l.2713 1.1531c-.0628.075-.1255.1509-.1863.2268l-1.1845-.0415a.3462.3462 0 00-.328.49l.491 1.0761a9.167 9.167 0 00-.1407.2622l-1.1662.1894a.3483.3483 0 00-.2258.5446l.6904.9587a13.303 13.303 0 00-.087.2855l-1.1065.414a.3483.3483 0 00-.1155.5781l.8656.807a9.2936 9.2936 0 00-.0283.2935l-1.0073.6236a.3442.3442 0 000 .5892l1.0073.6236c.008.0982.0182.1964.0283.2936l-.8656.8079a.3462.3462 0 00.1155.578l1.1065.4141c.0273.0962.0567.1914.087.2855l-.6904.9587a.3452.3452 0 00.2268.5447l1.1662.1893c.0456.088.0922.1751.1408.2622l-.491 1.0762a.3462.3462 0 00.328.49l1.1834-.0415c.0618.0769.1235.1528.1873.2277l-.2713 1.1541a.3462.3462 0 00.4171.4161l1.153-.2713c.075.0638.151.1255.2279.1863l-.0415 1.1845a.3442.3442 0 00.49.327l1.0761-.49c.087.0486.1741.0951.2622.1407l.1903 1.1662a.3483.3483 0 00.5447.2268l.9587-.6904a9.299 9.299 0 00.2855.087l.414 1.1066a.3452.3452 0 00.5781.1154l.8079-.8656c.0972.0111.1954.0203.2936.0294l.6236 1.0073a.3472.3472 0 00.5892 0l.6236-1.0073c.0982-.0091.1964-.0183.2936-.0294l.8069.8656a.3483.3483 0 00.578-.1154l.4141-1.1066a8.4626 8.4626 0 00.2855-.087l.9587.6904a.3452.3452 0 00.5447-.2268l.1903-1.1662c.088-.0456.1751-.0931.2622-.1407l1.0762.49a.3472.3472 0 00.49-.327l-.0415-1.1845a6.7267 6.7267 0 00.2267-.1863l1.1531.2713a.3472.3472 0 00.4171-.416l-.2713-1.1542c.0628-.0749.1255-.1508.1863-.2278l1.1845.0415a.3442.3442 0 00.328-.49l-.49-1.076c.0475-.0872.0951-.1742.1407-.2623l1.1662-.1893a.3483.3483 0 00.2258-.5447l-.6904-.9587.087-.2855 1.1066-.414a.3462.3462 0 00.1154-.5781l-.8656-.8079c.0101-.0972.0202-.1954.0283-.2936l1.0073-.6236a.3442.3442 0 000-.5892zm-6.7413 8.3551a.7138.7138 0 01.2986-1.396.714.714 0 11-.2997 1.396zm-.3422-2.3142a.649.649 0 00-.7715.5l-.3573 1.6685c-1.1035.501-2.3285.7795-3.6193.7795a8.7368 8.7368 0 01-3.6951-.814l-.3574-1.6684a.648.648 0 00-.7714-.499l-1.473.3158a8.7216 8.7216 0 01-.7613-.898h7.1676c.081 0 .1356-.0141.1356-.088v-2.536c0-.074-.0536-.0881-.1356-.0881h-2.0966v-1.6077h2.2677c.2065 0 1.1065.0587 1.394 1.2088.0901.3533.2875 1.5044.4232 1.8729.1346.413.6833 1.2381 1.2685 1.2381h3.5716a.7492.7492 0 00.1296-.0131 8.7874 8.7874 0 01-.8119.9526zM6.8369 20.024a.714.714 0 11-.2997-1.396.714.714 0 01.2997 1.396zM4.1177 8.9972a.7137.7137 0 11-1.304.5791.7137.7137 0 011.304-.579zm-.8352 1.9813l1.5347-.6824a.65.65 0 00.33-.8585l-.3158-.7147h1.2432v5.6025H3.5669a8.7753 8.7753 0 01-.2834-3.348zm6.7343-.5437V8.7836h2.9601c.153 0 1.0792.1772 1.0792.8697 0 .575-.7107.7815-1.2948.7815zm10.7574 1.4862c0 .2187-.008.4363-.0243.651h-.9c-.09 0-.1265.0586-.1265.1477v.413c0 .973-.5487 1.1846-1.0296 1.2382-.4576.0517-.9648-.1913-1.0275-.4717-.2704-1.5186-.7198-1.8436-1.4305-2.4034.8817-.5599 1.799-1.386 1.799-2.4915 0-1.1936-.819-1.9458-1.3769-2.3153-.7825-.5163-1.6491-.6195-1.883-.6195H5.4682a8.7651 8.7651 0 014.907-2.7699l1.0974 1.151a.648.648 0 00.9182.0213l1.227-1.1743a8.7753 8.7753 0 016.0044 4.2762l-.8403 1.8982a.652.652 0 00.33.8585l1.6178.7188c.0283.2875.0425.577.0425.8717zm-9.3006-9.5993a.7128.7128 0 11.984 1.0316.7137.7137 0 01-.984-1.0316zm8.3389 6.71a.7107.7107 0 01.9395-.3625.7137.7137 0 11-.9405.3635z"/></g><path fill="#0A0A0A" d="M242.9 202V190.6H247.4Q249.2 190.6 250.3 191.6Q251.3 192.5 251.3 194.1Q251.3 195.1 250.8 195.8Q250.2 196.5 249.4 196.7Q250.2 196.8 250.6 197.3Q251.1 197.8 251.1 198.7L251.5 202H249.7L249.4 198.9Q249.4 198.2 249 197.9Q248.6 197.6 247.6 197.6H244.6V202ZM244.6 196H247.4Q248.4 196 249 195.5Q249.5 195 249.5 194.1Q249.5 193.2 249 192.7Q248.4 192.2 247.3 192.2H244.6ZM256.1 202.2Q254.8 202.2 254 201.3Q253.3 200.5 253.3 199V193.5H255V198.5Q255 199.7 255.4 200.2Q255.8 200.8 256.6 200.8Q257.5 200.8 258 200.2Q258.5 199.6 258.5 198.5V193.5H260.2V202H258.7L258.6 200.6Q257.9 202.2 256.1 202.2ZM265.6 202.2Q263.7 202.2 262.8 201.4Q261.9 200.6 261.8 199.3L263.5 199.2Q263.6 199.9 264.1 200.4Q264.6 200.8 265.6 200.8Q266.4 200.8 266.8 200.5Q267.2 200.3 267.2 199.7Q267.2 199.4 267.1 199.2Q267 199 266.5 198.8Q266.1 198.7 265.3 198.5Q264.1 198.3 263.4 197.9Q262.7 197.6 262.4 197.1Q262.1 196.6 262.1 195.9Q262.1 194.8 263 194Q263.9 193.3 265.5 193.3Q266.7 193.3 267.4 193.7Q268.2 194.1 268.6 194.7Q269 195.4 269 196.1L267.3 196.2Q267.2 195.6 266.8 195.2Q266.4 194.7 265.5 194.7Q264.7 194.7 264.3 195Q263.9 195.4 263.9 195.9Q263.9 196.4 264.2 196.7Q264.6 197 265.6 197.2Q266.9 197.4 267.7 197.7Q268.4 198 268.7 198.5Q269 199 269 199.7Q269 200.9 268.1 201.5Q267.1 202.2 265.6 202.2ZM273.5 202Q272.3 202 271.8 201.4Q271.2 200.9 271.2 199.7V194.9H269.9V193.5H271.2V191.5H272.9V193.5H275.1V194.9H272.9V199.6Q272.9 200.2 273.1 200.4Q273.4 200.6 273.9 200.6H275.1V202Z"/><path fill="#6B6B6B" d="M284.4 202Q284.4 200.9 284.7 200Q285.1 199.1 286 198.2Q286.9 197.4 288.5 196.6Q289.2 196.2 289.6 195.9Q290.1 195.5 290.3 195.1Q290.5 194.8 290.5 194.2Q290.5 193.4 290 192.9Q289.5 192.4 288.4 192.4Q287.3 192.4 286.6 193Q286 193.5 285.8 194.6L284.4 194.5Q284.6 193 285.6 192Q286.7 191.1 288.4 191.1Q290 191.1 291 192Q291.9 192.8 291.9 194.2Q291.9 195 291.6 195.6Q291.3 196.2 290.7 196.7Q290.1 197.2 288.9 197.8Q287.5 198.6 286.8 199.3Q286 200.1 286 200.7H291.9V202ZM293.4 202V200.3H295V202ZM300.1 202.2Q298.4 202.2 297.4 201.4Q296.5 200.6 296.4 199.3L297.7 199.2Q297.8 200.1 298.5 200.6Q299.1 201 300.1 201Q300.8 201 301.4 200.8Q302 200.6 302.4 200.2Q302.7 199.8 302.7 199Q302.7 198 302 197.5Q301.3 197 300.2 197H299.3V195.7H300.2Q301.1 195.7 301.7 195.3Q302.4 195 302.4 194.1Q302.4 192.4 300.2 192.4Q299.2 192.4 298.6 192.8Q298.1 193.2 298 193.9L296.7 193.8Q296.8 192.6 297.7 191.9Q298.6 191.1 300.2 191.1Q301.8 191.1 302.8 191.9Q303.7 192.7 303.7 194Q303.7 195.7 301.9 196.3Q302.9 196.6 303.5 197.3Q304.1 198 304.1 199Q304.1 200.1 303.6 200.8Q303.1 201.5 302.2 201.9Q301.3 202.2 300.1 202.2ZM307.7 196.5Q306.7 196.5 306.1 195.8Q305.4 195.1 305.4 193.9Q305.4 192.6 306.1 191.9Q306.7 191.2 307.7 191.2Q308.7 191.2 309.4 191.9Q310 192.6 310 193.9Q310 195.1 309.4 195.8Q308.7 196.5 307.7 196.5ZM306.5 202 313.8 191.3H315L307.7 202ZM307.7 195.6Q308.3 195.6 308.6 195.1Q309 194.7 309 193.9Q309 193.1 308.6 192.6Q308.3 192.2 307.7 192.2Q307.1 192.2 306.8 192.6Q306.5 193.1 306.5 193.9Q306.5 194.7 306.8 195.1Q307.1 195.6 307.7 195.6ZM313.8 202.1Q312.8 202.1 312.2 201.4Q311.5 200.8 311.5 199.5Q311.5 198.2 312.2 197.5Q312.8 196.8 313.8 196.8Q314.8 196.8 315.5 197.5Q316.1 198.2 316.1 199.5Q316.1 200.8 315.5 201.4Q314.8 202.1 313.8 202.1ZM313.8 201.2Q314.4 201.2 314.7 200.7Q315 200.3 315 199.5Q315 198.7 314.7 198.2Q314.4 197.8 313.8 197.8Q313.2 197.8 312.9 198.2Q312.6 198.7 312.6 199.5Q312.6 200.3 312.9 200.7Q313.2 201.2 313.8 201.2Z"/><g transform="translate(415.0 186) scale(0.9166666666666666)" fill="#e34c26"><path d="M1.5 0h21l-1.91 21.563L11.977 24l-8.564-2.438L1.5 0zm7.031 9.75l-.232-2.718 10.059.003.23-2.622L5.412 4.41l.698 8.01h9.126l-.326 3.426-2.91.804-2.955-.81-.188-2.11H6.248l.33 4.171L12 19.351l5.379-1.443.744-8.157H8.531z"/></g><path fill="#0A0A0A" d="M450.4 202V190.6H452.1V195.5H457.4V190.6H459.1V202H457.4V197.1H452.1V202ZM463.4 202V192.2H459.9V190.6H468.6V192.2H465.1V202ZM469.6 202V190.6H472L475.4 200L478.7 190.6H481.1V202H479.4V193.7L476.3 202H474.4L471.3 193.7V202ZM483.7 202V190.6H485.4V200.4H491V202Z"/><path fill="#6B6B6B" d="M504.4 202.2Q503.2 202.2 502.2 201.6Q501.3 200.9 500.7 199.6Q500.2 198.4 500.2 196.7Q500.2 195 500.7 193.7Q501.3 192.5 502.2 191.8Q503.2 191.1 504.4 191.1Q505.8 191.1 506.7 191.8Q507.6 192.5 508.2 193.7Q508.7 195 508.7 196.7Q508.7 198.4 508.2 199.6Q507.6 200.9 506.7 201.6Q505.8 202.2 504.4 202.2ZM504.4 201Q505.8 201 506.6 199.9Q507.3 198.7 507.3 196.7Q507.3 194.6 506.6 193.5Q505.8 192.4 504.4 192.4Q503.1 192.4 502.3 193.5Q501.6 194.6 501.6 196.7Q501.6 198.7 502.3 199.9Q503.1 201 504.4 201ZM510 202V200.3H511.7V202ZM517 202.2Q515.3 202.2 514.3 201.4Q513.3 200.6 513.2 199.3L514.5 199.2Q514.7 200.1 515.3 200.5Q516 201 517 201Q518.1 201 518.8 200.3Q519.4 199.7 519.4 198.6Q519.4 197.5 518.8 196.8Q518.1 196.1 516.9 196.1Q516.2 196.1 515.6 196.4Q515 196.8 514.8 197.3H513.4L514.1 191.3H520V192.6H515.3L514.9 195.8Q515.3 195.4 515.9 195.1Q516.5 194.9 517.2 194.9Q518.2 194.9 519.1 195.4Q519.9 195.8 520.3 196.7Q520.8 197.5 520.8 198.6Q520.8 199.6 520.3 200.5Q519.8 201.3 519 201.8Q518.1 202.2 517 202.2ZM524.6 196.5Q523.6 196.5 522.9 195.8Q522.3 195.1 522.3 193.9Q522.3 192.6 522.9 191.9Q523.6 191.2 524.6 191.2Q525.6 191.2 526.2 191.9Q526.9 192.6 526.9 193.9Q526.9 195.1 526.2 195.8Q525.6 196.5 524.6 196.5ZM523.3 202 530.7 191.3H531.9L524.5 202ZM524.6 195.6Q525.2 195.6 525.5 195.1Q525.8 194.7 525.8 193.9Q525.8 193.1 525.5 192.6Q525.2 192.2 524.6 192.2Q524 192.2 523.7 192.6Q523.3 193.1 523.3 193.9Q523.3 194.7 523.7 195.1Q524 195.6 524.6 195.6ZM530.7 202.1Q529.7 202.1 529 201.4Q528.4 200.8 528.4 199.5Q528.4 198.2 529 197.5Q529.7 196.8 530.7 196.8Q531.7 196.8 532.3 197.5Q533 198.2 533 199.5Q533 200.8 532.3 201.4Q531.7 202.1 530.7 202.1ZM530.7 201.2Q531.3 201.2 531.6 200.7Q531.9 200.3 531.9 199.5Q531.9 198.7 531.6 198.2Q531.3 197.8 530.7 197.8Q530.1 197.8 529.8 198.2Q529.4 198.7 529.4 199.5Q529.4 200.3 529.8 200.7Q530.1 201.2 530.7 201.2Z"/><g transform="translate(622.5 186) scale(0.9166666666666666)" fill="#336790"><path d="M23.5594 14.7228a.5269.5269 0 0 0-.0563-.1191c-.139-.2632-.4768-.3418-1.0074-.2321-1.6533.3411-2.2935.1312-2.5256-.0191 1.342-2.0482 2.445-4.522 3.0411-6.8297.2714-1.0507.7982-3.5237.1222-4.7316a1.5641 1.5641 0 0 0-.1509-.235C21.6931.9086 19.8007.0248 17.5099.0005c-1.4947-.0158-2.7705.3461-3.1161.4794a9.449 9.449 0 0 0-.5159-.0816 8.044 8.044 0 0 0-1.3114-.1278c-1.1822-.0184-2.2038.2642-3.0498.8406-.8573-.3211-4.7888-1.645-7.2219.0788C.9359 2.1526.3086 3.8733.4302 6.3043c.0409.818.5069 3.334 1.2423 5.7436.4598 1.5065.9387 2.7019 1.4334 3.582.553.9942 1.1259 1.5933 1.7143 1.7895.4474.1491 1.1327.1441 1.8581-.7279.8012-.9635 1.5903-1.8258 1.9446-2.2069.4351.2355.9064.3625 1.39.3772a.0569.0569 0 0 0 .0004.0041 11.0312 11.0312 0 0 0-.2472.3054c-.3389.4302-.4094.5197-1.5002.7443-.3102.064-1.1344.2339-1.1464.8115-.0025.1224.0329.2309.0919.3268.2269.4231.9216.6097 1.015.6331 1.3345.3335 2.5044.092 3.3714-.6787-.017 2.231.0775 4.4174.3454 5.0874.2212.5529.7618 1.9045 2.4692 1.9043.2505 0 .5263-.0291.8296-.0941 1.7819-.3821 2.5557-1.1696 2.855-2.9059.1503-.8707.4016-2.8753.5388-4.1012.0169-.0703.0357-.1207.057-.1362.0007-.0005.0697-.0471.4272.0307a.3673.3673 0 0 0 .0443.0068l.2539.0223.0149.001c.8468.0384 1.9114-.1426 2.5312-.4308.6438-.2988 1.8057-1.0323 1.5951-1.6698zM2.371 11.8765c-.7435-2.4358-1.1779-4.8851-1.2123-5.5719-.1086-2.1714.4171-3.6829 1.5623-4.4927 1.8367-1.2986 4.8398-.5408 6.108-.13-.0032.0032-.0066.0061-.0098.0094-2.0238 2.044-1.9758 5.536-1.9708 5.7495-.0002.0823.0066.1989.0162.3593.0348.5873.0996 1.6804-.0735 2.9184-.1609 1.1504.1937 2.2764.9728 3.0892.0806.0841.1648.1631.2518.2374-.3468.3714-1.1004 1.1926-1.9025 2.1576-.5677.6825-.9597.5517-1.0886.5087-.3919-.1307-.813-.5871-1.2381-1.3223-.4796-.839-.9635-2.0317-1.4155-3.5126zm6.0072 5.0871c-.1711-.0428-.3271-.1132-.4322-.1772.0889-.0394.2374-.0902.4833-.1409 1.2833-.2641 1.4815-.4506 1.9143-1.0002.0992-.126.2116-.2687.3673-.4426a.3549.3549 0 0 0 .0737-.1298c.1708-.1513.2724-.1099.4369-.0417.156.0646.3078.26.3695.4752.0291.1016.0619.2945-.0452.4444-.9043 1.2658-2.2216 1.2494-3.1676 1.0128zm2.094-3.988-.0525.141c-.133.3566-.2567.6881-.3334 1.003-.6674-.0021-1.3168-.2872-1.8105-.8024-.6279-.6551-.9131-1.5664-.7825-2.5004.1828-1.3079.1153-2.4468.079-3.0586-.005-.0857-.0095-.1607-.0122-.2199.2957-.2621 1.6659-.9962 2.6429-.7724.4459.1022.7176.4057.8305.928.5846 2.7038.0774 3.8307-.3302 4.7363-.084.1866-.1633.3629-.2311.5454zm7.3637 4.5725c-.0169.1768-.0358.376-.0618.5959l-.146.4383a.3547.3547 0 0 0-.0182.1077c-.0059.4747-.054.6489-.115.8693-.0634.2292-.1353.4891-.1794 1.0575-.11 1.4143-.8782 2.2267-2.4172 2.5565-1.5155.3251-1.7843-.4968-2.0212-1.2217a6.5824 6.5824 0 0 0-.0769-.2266c-.2154-.5858-.1911-1.4119-.1574-2.5551.0165-.5612-.0249-1.9013-.3302-2.6462.0044-.2932.0106-.5909.019-.8918a.3529.3529 0 0 0-.0153-.1126 1.4927 1.4927 0 0 0-.0439-.208c-.1226-.4283-.4213-.7866-.7797-.9351-.1424-.059-.4038-.1672-.7178-.0869.067-.276.1831-.5875.309-.9249l.0529-.142c.0595-.16.134-.3257.213-.5012.4265-.9476 1.0106-2.2453.3766-5.1772-.2374-1.0981-1.0304-1.6343-2.2324-1.5098-.7207.0746-1.3799.3654-1.7088.5321a5.6716 5.6716 0 0 0-.1958.1041c.0918-1.1064.4386-3.1741 1.7357-4.4823a4.0306 4.0306 0 0 1 .3033-.276.3532.3532 0 0 0 .1447-.0644c.7524-.5706 1.6945-.8506 2.802-.8325.4091.0067.8017.0339 1.1742.081 1.939.3544 3.2439 1.4468 4.0359 2.3827.8143.9623 1.2552 1.9315 1.4312 2.4543-1.3232-.1346-2.2234.1268-2.6797.779-.9926 1.4189.543 4.1729 1.2811 5.4964.1353.2426.2522.4522.2889.5413.2403.5825.5515.9713.7787 1.2552.0696.087.1372.1714.1885.245-.4008.1155-1.1208.3825-1.0552 1.717-.0123.1563-.0423.4469-.0834.8148-.0461.2077-.0702.4603-.0994.7662zm.8905-1.6211c-.0405-.8316.2691-.9185.5967-1.0105a2.8566 2.8566 0 0 0 .135-.0406 1.202 1.202 0 0 0 .1342.103c.5703.3765 1.5823.4213 3.0068.1344-.2016.1769-.5189.3994-.9533.6011-.4098.1903-1.0957.333-1.7473.3636-.7197.0336-1.0859-.0807-1.1721-.151zm.5695-9.2712c-.0059.3508-.0542.6692-.1054 1.0017-.055.3576-.112.7274-.1264 1.1762-.0142.4368.0404.8909.0932 1.3301.1066.887.216 1.8003-.2075 2.7014a3.5272 3.5272 0 0 1-.1876-.3856c-.0527-.1276-.1669-.3326-.3251-.6162-.6156-1.1041-2.0574-3.6896-1.3193-4.7446.3795-.5427 1.3408-.5661 2.1781-.463zm.2284 7.0137a12.3762 12.3762 0 0 0-.0853-.1074l-.0355-.0444c.7262-1.1995.5842-2.3862.4578-3.4385-.0519-.4318-.1009-.8396-.0885-1.2226.0129-.4061.0666-.7543.1185-1.0911.0639-.415.1288-.8443.1109-1.3505.0134-.0531.0188-.1158.0118-.1902-.0457-.4855-.5999-1.938-1.7294-3.253-.6076-.7073-1.4896-1.4972-2.6889-2.0395.5251-.1066 1.2328-.2035 2.0244-.1859 2.0515.0456 3.6746.8135 4.8242 2.2824a.908.908 0 0 1 .0667.1002c.7231 1.3556-.2762 6.2751-2.9867 10.5405zm-8.8166-6.1162c-.025.1794-.3089.4225-.6211.4225a.5821.5821 0 0 1-.0809-.0056c-.1873-.026-.3765-.144-.5059-.3156-.0458-.0605-.1203-.178-.1055-.2844.0055-.0401.0261-.0985.0925-.1488.1182-.0894.3518-.1226.6096-.0867.3163.0441.6426.1938.6113.4186zm7.9305-.4114c.0111.0792-.049.201-.1531.3102-.0683.0717-.212.1961-.4079.2232a.5456.5456 0 0 1-.075.0052c-.2935 0-.5414-.2344-.5607-.3717-.024-.1765.2641-.3106.5611-.352.297-.0414.6111.0088.6356.1851z"/></g><path fill="#0A0A0A" d="M657.9 202V190.6H662.1Q664.1 190.6 665.1 191.6Q666.2 192.5 666.2 194.2Q666.2 195.8 665.1 196.8Q664.1 197.7 662.1 197.7H659.6V202ZM659.6 196.2H662.1Q664.5 196.2 664.5 194.2Q664.5 192.2 662.1 192.2H659.6ZM668.2 202V190.6H670V200.4H675.5V202ZM677.2 204.4V193.5H678.8L678.9 194.8Q679.2 194 679.9 193.7Q680.6 193.3 681.4 193.3Q682.7 193.3 683.5 193.9Q684.3 194.5 684.7 195.5Q685.1 196.5 685.1 197.7Q685.1 198.9 684.7 200Q684.3 201 683.5 201.6Q682.7 202.2 681.4 202.2Q680.6 202.2 679.9 201.8Q679.3 201.5 678.9 200.8V204.4ZM681.1 200.7Q682.1 200.7 682.7 199.9Q683.3 199.2 683.3 197.7Q683.3 196.3 682.7 195.6Q682.1 194.8 681.1 194.8Q680.1 194.8 679.5 195.5Q678.9 196.3 678.9 197.7Q678.9 199.2 679.5 200Q680.1 200.7 681.1 200.7ZM690.1 204.6Q688.5 204.6 687.6 203.9Q686.6 203.2 686.3 202.1L688.1 202Q688.3 202.6 688.7 202.9Q689.2 203.2 690.1 203.2Q691.1 203.2 691.7 202.7Q692.2 202.3 692.2 201.4V200.1Q691.9 200.8 691.3 201.2Q690.6 201.6 689.8 201.6Q688.7 201.6 687.9 201Q687 200.5 686.6 199.6Q686.1 198.7 686.1 197.4Q686.1 196.2 686.6 195.3Q687 194.4 687.8 193.8Q688.6 193.3 689.7 193.3Q690.6 193.3 691.3 193.7Q692 194.1 692.3 194.8V193.5H693.9V201.3Q693.9 202.9 692.9 203.7Q691.8 204.6 690.1 204.6ZM690 200.1Q691 200.1 691.6 199.4Q692.2 198.7 692.2 197.4Q692.3 196.2 691.7 195.5Q691 194.7 690 194.7Q689 194.7 688.4 195.5Q687.9 196.2 687.9 197.4Q687.9 198.7 688.4 199.4Q689 200.1 690 200.1ZM700.5 202.3Q699.1 202.3 698.1 201.8Q697.1 201.3 696.5 200.4Q695.9 199.5 695.8 198.3L697.6 198.2Q697.8 199.4 698.5 200Q699.2 200.7 700.5 200.7Q701.6 200.7 702.2 200.3Q702.8 199.9 702.8 199.1Q702.8 198.6 702.6 198.2Q702.3 197.8 701.7 197.5Q701 197.2 699.8 196.9Q698.4 196.6 697.6 196.2Q696.8 195.8 696.4 195.2Q696.1 194.6 696.1 193.7Q696.1 192.7 696.6 192Q697 191.2 697.9 190.8Q698.8 190.4 700 190.4Q701.3 190.4 702.2 190.9Q703.2 191.3 703.7 192.2Q704.2 193 704.4 194.1L702.6 194.2Q702.5 193.2 701.8 192.6Q701.2 192 700 192Q699 192 698.4 192.4Q697.9 192.9 697.9 193.6Q697.9 194.1 698.1 194.4Q698.3 194.8 698.9 195Q699.5 195.2 700.6 195.5Q702.1 195.8 703 196.3Q703.8 196.8 704.2 197.5Q704.6 198.1 704.6 199Q704.6 200 704.1 200.7Q703.5 201.5 702.6 201.9Q701.7 202.3 700.5 202.3ZM714.1 203.1 713.2 201.9Q712.9 202.1 712.3 202.2Q711.8 202.3 711.2 202.3Q709.6 202.3 708.4 201.5Q707.2 200.7 706.6 199.4Q706 198 706 196.3Q706 194.7 706.6 193.3Q707.2 192 708.4 191.2Q709.6 190.4 711.2 190.4Q712.9 190.4 714.1 191.2Q715.3 192 715.9 193.3Q716.5 194.7 716.5 196.3Q716.5 197.9 715.9 199.2Q715.4 200.5 714.4 201.3L715.8 203.1ZM711.2 200.7Q711.5 200.7 711.8 200.6Q712 200.6 712.2 200.5L710.6 198.5H712.2L713.3 199.9Q714.7 198.8 714.7 196.3Q714.7 195.2 714.3 194.2Q714 193.2 713.2 192.6Q712.4 192 711.2 192Q710.1 192 709.3 192.6Q708.5 193.2 708.2 194.2Q707.8 195.2 707.8 196.3Q707.8 197.5 708.2 198.5Q708.5 199.5 709.3 200.1Q710.1 200.7 711.2 200.7ZM718.2 202V190.6H720V200.4H725.5V202Z"/><path fill="#6B6B6B" d="M739 202.2Q737.7 202.2 736.8 201.6Q735.8 200.9 735.3 199.6Q734.8 198.4 734.8 196.7Q734.8 195 735.3 193.7Q735.8 192.5 736.8 191.8Q737.7 191.1 739 191.1Q740.3 191.1 741.3 191.8Q742.2 192.5 742.7 193.7Q743.2 195 743.2 196.7Q743.2 198.4 742.7 199.6Q742.2 200.9 741.3 201.6Q740.3 202.2 739 202.2ZM739 201Q740.4 201 741.1 199.9Q741.9 198.7 741.9 196.7Q741.9 194.6 741.1 193.5Q740.4 192.4 739 192.4Q737.6 192.4 736.9 193.5Q736.1 194.6 736.1 196.7Q736.1 198.7 736.9 199.9Q737.6 201 739 201ZM744.6 202V200.3H746.3V202ZM751.5 202.2Q749.8 202.2 748.9 201.4Q747.9 200.6 747.7 199.3L749.1 199.2Q749.2 200.1 749.9 200.5Q750.5 201 751.5 201Q752.7 201 753.3 200.3Q754 199.7 754 198.6Q754 197.5 753.3 196.8Q752.7 196.1 751.5 196.1Q750.8 196.1 750.2 196.4Q749.6 196.8 749.3 197.3H747.9L748.6 191.3H754.6V192.6H749.8L749.4 195.8Q749.8 195.4 750.4 195.1Q751 194.9 751.7 194.9Q752.8 194.9 753.6 195.4Q754.4 195.8 754.9 196.7Q755.3 197.5 755.3 198.6Q755.3 199.6 754.8 200.5Q754.4 201.3 753.5 201.8Q752.7 202.2 751.5 202.2ZM759.1 196.5Q758.1 196.5 757.5 195.8Q756.8 195.1 756.8 193.9Q756.8 192.6 757.5 191.9Q758.1 191.2 759.1 191.2Q760.2 191.2 760.8 191.9Q761.4 192.6 761.4 193.9Q761.4 195.1 760.8 195.8Q760.2 196.5 759.1 196.5ZM757.9 202 765.3 191.3H766.5L759.1 202ZM759.1 195.6Q759.7 195.6 760.1 195.1Q760.4 194.7 760.4 193.9Q760.4 193.1 760.1 192.6Q759.7 192.2 759.1 192.2Q758.5 192.2 758.2 192.6Q757.9 193.1 757.9 193.9Q757.9 194.7 758.2 195.1Q758.5 195.6 759.1 195.6ZM765.2 202.1Q764.2 202.1 763.6 201.4Q762.9 200.8 762.9 199.5Q762.9 198.2 763.6 197.5Q764.2 196.8 765.2 196.8Q766.2 196.8 766.9 197.5Q767.5 198.2 767.5 199.5Q767.5 200.8 766.9 201.4Q766.2 202.1 765.2 202.1ZM765.2 201.2Q765.8 201.2 766.1 200.7Q766.5 200.3 766.5 199.5Q766.5 198.7 766.1 198.2Q765.8 197.8 765.2 197.8Q764.6 197.8 764.3 198.2Q764 198.7 764 199.5Q764 200.3 764.3 200.7Q764.6 201.2 765.2 201.2Z"/><rect x="0" y="241" width="830" height="1" fill="#E5E5E5"/></svg>
