<svg xmlns="http://www.w3.org/2000/svg" viewBox="0 0 640 128" width="640" height="128" font-family="Menlo, 'SF Mono', Monaco, Consolas, 'Liberation Mono', monospace" role="img" aria-label="dekrezz">
  <text xml:space="preserve" font-size="18" fill="#3fb950">
    <tspan x="12.0 23.0 34.0 45.0 56.0 67.0 78.0 89.0 100.0 111.0 122.0 133.0 144.0 155.0 166.0 177.0 188.0 199.0 210.0 221.0 232.0 243.0 254.0 265.0 276.0 287.0 298.0 309.0 320.0 331.0 342.0 353.0 364.0 375.0 386.0 397.0 408.0 419.0 430.0 441.0 452.0 463.0 474.0 485.0 496.0 507.0 518.0 529.0 540.0 551.0 562.0 573.0 584.0 595.0 606.0 617.0" y="22.0">██████╗ ███████╗██╗  ██╗██████╗ ███████╗███████╗███████╗</tspan>
    <tspan x="12.0 23.0 34.0 45.0 56.0 67.0 78.0 89.0 100.0 111.0 122.0 133.0 144.0 155.0 166.0 177.0 188.0 199.0 210.0 221.0 232.0 243.0 254.0 265.0 276.0 287.0 298.0 309.0 320.0 331.0 342.0 353.0 364.0 375.0 386.0 397.0 408.0 419.0 430.0 441.0 452.0 463.0 474.0 485.0 496.0 507.0 518.0 529.0 540.0 551.0 562.0 573.0 584.0 595.0 606.0 617.0" y="38.5">██╔══██╗██╔════╝██║ ██╔╝██╔══██╗██╔════╝╚══███╔╝╚══███╔╝</tspan>
    <tspan x="12.0 23.0 34.0 45.0 56.0 67.0 78.0 89.0 100.0 111.0 122.0 133.0 144.0 155.0 166.0 177.0 188.0 199.0 210.0 221.0 232.0 243.0 254.0 265.0 276.0 287.0 298.0 309.0 320.0 331.0 342.0 353.0 364.0 375.0 386.0 397.0 408.0 419.0 430.0 441.0 452.0 463.0 474.0 485.0 496.0 507.0 518.0 529.0 540.0 551.0 562.0 573.0 584.0 595.0 606.0 617.0" y="55.0">██║  ██║█████╗  █████╔╝ ██████╔╝█████╗    ███╔╝   ███╔╝ </tspan>
    <tspan x="12.0 23.0 34.0 45.0 56.0 67.0 78.0 89.0 100.0 111.0 122.0 133.0 144.0 155.0 166.0 177.0 188.0 199.0 210.0 221.0 232.0 243.0 254.0 265.0 276.0 287.0 298.0 309.0 320.0 331.0 342.0 353.0 364.0 375.0 386.0 397.0 408.0 419.0 430.0 441.0 452.0 463.0 474.0 485.0 496.0 507.0 518.0 529.0 540.0 551.0 562.0 573.0 584.0 595.0 606.0 617.0" y="71.5">██║  ██║██╔══╝  ██╔═██╗ ██╔══██╗██╔══╝   ███╔╝   ███╔╝  </tspan>
    <tspan x="12.0 23.0 34.0 45.0 56.0 67.0 78.0 89.0 100.0 111.0 122.0 133.0 144.0 155.0 166.0 177.0 188.0 199.0 210.0 221.0 232.0 243.0 254.0 265.0 276.0 287.0 298.0 309.0 320.0 331.0 342.0 353.0 364.0 375.0 386.0 397.0 408.0 419.0 430.0 441.0 452.0 463.0 474.0 485.0 496.0 507.0 518.0 529.0 540.0 551.0 562.0 573.0 584.0 595.0 606.0 617.0" y="88.0">██████╔╝███████╗██║  ██╗██║  ██║███████╗███████╗███████╗</tspan>
    <tspan x="12.0 23.0 34.0 45.0 56.0 67.0 78.0 89.0 100.0 111.0 122.0 133.0 144.0 155.0 166.0 177.0 188.0 199.0 210.0 221.0 232.0 243.0 254.0 265.0 276.0 287.0 298.0 309.0 320.0 331.0 342.0 353.0 364.0 375.0 386.0 397.0 408.0 419.0 430.0 441.0 452.0 463.0 474.0 485.0 496.0 507.0 518.0 529.0 540.0 551.0 562.0 573.0 584.0 595.0 606.0 617.0" y="104.5">╚═════╝ ╚══════╝╚═╝  ╚═╝╚═╝  ╚═╝╚══════╝╚══════╝╚══════╝</tspan>
  </text>
</svg>
